<mxfile host="app.diagrams.net" agent="Mozilla/5.0 (Macintosh; Intel Mac OS X 10.15; rv:137.0) Gecko/20100101 Firefox/137.0" border="50" scale="3" compressed="false" locked="false" version="26.2.14">
  <diagram name="Blank" id="YmL12bMKpDGza6XwsDPr">
    <mxGraphModel dx="1498" dy="1021" grid="0" gridSize="10" guides="1" tooltips="1" connect="1" arrows="1" fold="1" page="0" pageScale="1" pageWidth="827" pageHeight="1169" background="none" math="1" shadow="0">
      <root>
        <mxCell id="X5NqExCQtvZxIxQ7pmgY-0" />
        <mxCell id="1" parent="X5NqExCQtvZxIxQ7pmgY-0" />
        <mxCell id="9wjv7jFX8xUqSjr2dzsi-1" value="" style="shape=image;verticalLabelPosition=bottom;labelBackgroundColor=#ffffff;verticalAlign=top;aspect=fixed;imageAspect=0;image=data:image/svg+xml,PHN2ZyB4bWxuczpjYz0iaHR0cDovL2NyZWF0aXZlY29tbW9ucy5vcmcvbnMjIiB4bWxuczpkYz0iaHR0cDovL3B1cmwub3JnL2RjL2VsZW1lbnRzLzEuMS8iIHhtbG5zOmlua3NjYXBlPSJodHRwOi8vd3d3Lmlua3NjYXBlLm9yZy9uYW1lc3BhY2VzL2lua3NjYXBlIiB4bWxuczpyZGY9Imh0dHA6Ly93d3cudzMub3JnLzE5OTkvMDIvMjItcmRmLXN5bnRheC1ucyMiIHhtbG5zOnNvZGlwb2RpPSJodHRwOi8vc29kaXBvZGkuc291cmNlZm9yZ2UubmV0L0RURC9zb2RpcG9kaS0wLmR0ZCIgeG1sbnM6c3ZnPSJodHRwOi8vd3d3LnczLm9yZy8yMDAwL3N2ZyIgeG1sbnM9Imh0dHA6Ly93d3cudzMub3JnLzIwMDAvc3ZnIiB4bWxuczp4bGluaz0iaHR0cDovL3d3dy53My5vcmcvMTk5OS94bGluayIgdmVyc2lvbj0iMS4xIiBpZD0ic3ZnMjU2MTM1IiBpbmtzY2FwZTp2ZXJzaW9uPSIwLjkyLjMgKDI0MDU1NDYsIDIwMTgtMDMtMTEpIiBzb2RpcG9kaTpkb2NuYW1lPSJkYXRhYmFzZV9zZXJ2ZXIuc3ZnIiB4PSIwcHgiIHk9IjBweCIgdmlld0JveD0iMCAwIDQ4LjQxIDY5Ljc2IiBzdHlsZT0iZW5hYmxlLWJhY2tncm91bmQ6bmV3IDAgMCA0OC40MSA2OS43NjsiIHhtbDpzcGFjZT0icHJlc2VydmUiPiYjeGE7PHNvZGlwb2RpOm5hbWVkdmlldyBib3JkZXJjb2xvcj0iIzY2NjY2NiIgYm9yZGVyb3BhY2l0eT0iMSIgZml0LW1hcmdpbi1ib3R0b209IjAiIGZpdC1tYXJnaW4tbGVmdD0iMCIgZml0LW1hcmdpbi1yaWdodD0iMCIgZml0LW1hcmdpbi10b3A9IjAiIGdyaWR0b2xlcmFuY2U9IjEwIiBndWlkZXRvbGVyYW5jZT0iMTAiIGlkPSJuYW1lZHZpZXcyNTYxMzciIGlua3NjYXBlOmN1cnJlbnQtbGF5ZXI9InN2ZzI1NjEzNSIgaW5rc2NhcGU6Y3g9IjMyLjE5MDg5NyIgaW5rc2NhcGU6Y3k9IjQ2LjUwODM0NiIgaW5rc2NhcGU6cGFnZW9wYWNpdHk9IjAiIGlua3NjYXBlOnBhZ2VzaGFkb3c9IjIiIGlua3NjYXBlOndpbmRvdy1oZWlnaHQ9IjEwMTciIGlua3NjYXBlOndpbmRvdy1tYXhpbWl6ZWQ9IjEiIGlua3NjYXBlOndpbmRvdy13aWR0aD0iMTkyMCIgaW5rc2NhcGU6d2luZG93LXg9Ii04IiBpbmtzY2FwZTp3aW5kb3cteT0iLTgiIGlua3NjYXBlOnpvb209IjkuMTI1MzY4OSIgb2JqZWN0dG9sZXJhbmNlPSIxMCIgcGFnZWNvbG9yPSIjZmZmZmZmIiBzaG93Z3JpZD0iZmFsc2UiPiYjeGE7CTwvc29kaXBvZGk6bmFtZWR2aWV3PiYjeGE7PGcgaWQ9ImcyNTYxMzMiIHRyYW5zZm9ybT0idHJhbnNsYXRlKC0wLjc1LC0wLjc1MDAzODc4KSI+JiN4YTsJPHRpdGxlIGlkPSJ0aXRsZTI1NjAxNiI+UGFnZS0xPC90aXRsZT4mI3hhOwk8ZyBpZD0iZ3JvdXAxMDk0OC0xIiB0cmFuc2Zvcm09InRyYW5zbGF0ZSgxLjUsLTEuNSkiPiYjeGE7CQk8dGl0bGUgaWQ9InRpdGxlMjU2MDE4Ij5EYXRhYmFzZSBTZXJ2ZXI8L3RpdGxlPiYjeGE7CQk8ZyBpZD0iZ3JvdXAxMDk0OS0yIj4mI3hhOwkJCTx0aXRsZSBpZD0idGl0bGUyNTYwMjAiPkRhdGFiYXNlIFNlcnZlcjwvdGl0bGU+JiN4YTsJCQk8ZyBpZD0iZ3JvdXAxMDk1MC0zIj4mI3hhOwkJCQk8dGl0bGUgaWQ9InRpdGxlMjU2MDIyIj5HZW5lcmljIFNlcnZpY2U8L3RpdGxlPiYjeGE7CQkJCTxnIGlkPSJncm91cDEwOTUxLTQiIHRyYW5zZm9ybT0idHJhbnNsYXRlKDAsLTAuMDA3Mzk4NzYpIj4mI3hhOwkJCQkJPHRpdGxlIGlkPSJ0aXRsZTI1NjAyNCI+ZzE1NDMzLjExNzIxPC90aXRsZT4mI3hhOwkJCQkJPGcgaWQ9InNoYXBlMTA5NTItNSI+JiN4YTsJCQkJCQk8dGl0bGUgaWQ9InRpdGxlMjU2MDI2Ij5yZWN0MTU0MDU8L3RpdGxlPiYjeGE7CQkJCQkJJiN4YTsJCQkJCQkJPHJlY3QgaWQ9InJlY3QyNTYwMjgiIHk9IjMuMDEiIHN0eWxlPSJmaWxsOiNGRkZGRkY7c3Ryb2tlOiM1NTZBOEE7c3Ryb2tlLXdpZHRoOjEuNTtzdHJva2UtbWl0ZXJsaW1pdDozOyIgd2lkdGg9IjM5Ljc1IiBoZWlnaHQ9IjY4LjI1Ii8+JiN4YTsJCQkJCTwvZz4mI3hhOwkJCQkJPGcgaWQ9Imdyb3VwMTA5NTMtNyIgdHJhbnNmb3JtPSJ0cmFuc2xhdGUoMS41LC0wLjc1KSI+JiN4YTsJCQkJCQk8dGl0bGUgaWQ9InRpdGxlMjU2MDMxIj5nMTU0MjU8L3RpdGxlPiYjeGE7CQkJCQkJPGcgaWQ9InNoYXBlMTA5NTQtOCIgdHJhbnNmb3JtPSJ0cmFuc2xhdGUoMTgpIj4mI3hhOwkJCQkJCQk8dGl0bGUgaWQ9InRpdGxlMjU2MDMzIj5yZWN0MTU0MDc8L3RpdGxlPiYjeGE7CQkJCQkJCTxyZWN0IGlkPSJyZWN0MjU2MDM1IiB5PSI0LjUxIiBzdHlsZT0iZmlsbDojRTVFNUU1OyIgd2lkdGg9IjE5LjUiIGhlaWdodD0iNjYuNzUiLz4mI3hhOwkJCQkJCTwvZz4mI3hhOwkJCQkJCTxnIGlkPSJzaGFwZTEwOTU1LTEwIiB0cmFuc2Zvcm09InRyYW5zbGF0ZSgwLC00OCkiPiYjeGE7CQkJCQkJCTx0aXRsZSBpZD0idGl0bGUyNTYwMzgiPnJlY3QxNTQwOTwvdGl0bGU+JiN4YTsJCQkJCQkJPHJlY3QgaWQ9InJlY3QyNTYwNDAiIHk9IjY5LjAxIiBzdHlsZT0iZmlsbDojMkJDN0Y0OyIgd2lkdGg9IjE4IiBoZWlnaHQ9IjIuMjUiLz4mI3hhOwkJCQkJCTwvZz4mI3hhOwkJCQkJCTxnIGlkPSJzaGFwZTEwOTU2LTEyIiB0cmFuc2Zvcm09InRyYW5zbGF0ZSgwLC01OC41KSI+JiN4YTsJCQkJCQkJPHRpdGxlIGlkPSJ0aXRsZTI1NjA0MyI+cG9seWdvbjE1NDExPC90aXRsZT4mI3hhOwkJCQkJCQk8cmVjdCBpZD0icmVjdDI1NjA0NSIgeT0iNjkuMDEiIHN0eWxlPSJmaWxsOm5vbmU7IiB3aWR0aD0iMjciIGhlaWdodD0iMi4yNSIvPiYjeGE7CQkJCQkJPC9nPiYjeGE7CQkJCQkJPGcgaWQ9InNoYXBlMTA5NTctMTQiIHRyYW5zZm9ybT0idHJhbnNsYXRlKDAsLTU4LjUpIj4mI3hhOwkJCQkJCQk8dGl0bGUgaWQ9InRpdGxlMjU2MDQ4Ij5wb2x5bGluZTE1NDEzPC90aXRsZT4mI3hhOwkJCQkJCQk8cmVjdCBpZD0icmVjdDI1NjA1MCIgeT0iNjkuMDEiIHN0eWxlPSJmaWxsOm5vbmU7IiB3aWR0aD0iMjciIGhlaWdodD0iMi4yNSIvPiYjeGE7CQkJCQkJPC9nPiYjeGE7CQkJCQkJPGcgaWQ9InNoYXBlMTA5NTgtMTYiIHRyYW5zZm9ybT0idHJhbnNsYXRlKDAsLTUzLjI1KSI+JiN4YTsJCQkJCQkJPHRpdGxlIGlkPSJ0aXRsZTI1NjA1MyI+cmVjdDE1NDE1PC90aXRsZT4mI3hhOwkJCQkJCQk8cmVjdCBpZD0icmVjdDI1NjA1NSIgeT0iNjkuMDEiIHN0eWxlPSJmaWxsOiMyQkM3RjQ7IiB3aWR0aD0iMTgiIGhlaWdodD0iMi4yNSIvPiYjeGE7CQkJCQkJPC9nPiYjeGE7CQkJCQkJPGcgaWQ9InNoYXBlMTA5NTktMTgiIHRyYW5zZm9ybT0idHJhbnNsYXRlKDAsLTU4LjUpIj4mI3hhOwkJCQkJCQk8dGl0bGUgaWQ9InRpdGxlMjU2MDU4Ij5yZWN0MTU0MTc8L3RpdGxlPiYjeGE7CQkJCQkJCTxyZWN0IGlkPSJyZWN0MjU2MDYwIiB5PSI2OS4wMSIgc3R5bGU9ImZpbGw6IzJCQzdGNDsiIHdpZHRoPSIxOCIgaGVpZ2h0PSIyLjI1Ii8+JiN4YTsJCQkJCQk8L2c+JiN4YTsJCQkJCQk8ZyBpZD0ic2hhcGUxMDk2MC0yMCIgdHJhbnNmb3JtPSJ0cmFuc2xhdGUoMTgsLTQ4KSI+JiN4YTsJCQkJCQkJPHRpdGxlIGlkPSJ0aXRsZTI1NjA2MyI+cmVjdDE1NDE5PC90aXRsZT4mI3hhOwkJCQkJCQk8cmVjdCBpZD0icmVjdDI1NjA2NSIgeT0iNjkuMDEiIHN0eWxlPSJmaWxsOiM1NTZBOEE7IiB3aWR0aD0iMTkuNSIgaGVpZ2h0PSIyLjI1Ii8+JiN4YTsJCQkJCQk8L2c+JiN4YTsJCQkJCQk8ZyBpZD0ic2hhcGUxMDk2MS0yMiIgdHJhbnNmb3JtPSJ0cmFuc2xhdGUoMTgsLTUzLjI1KSI+JiN4YTsJCQkJCQkJPHRpdGxlIGlkPSJ0aXRsZTI1NjA2OCI+cmVjdDE1NDIxPC90aXRsZT4mI3hhOwkJCQkJCQk8cmVjdCBpZD0icmVjdDI1NjA3MCIgeT0iNjkuMDEiIHN0eWxlPSJmaWxsOiM1NTZBOEE7IiB3aWR0aD0iMTkuNSIgaGVpZ2h0PSIyLjI1Ii8+JiN4YTsJCQkJCQk8L2c+JiN4YTsJCQkJCQk8ZyBpZD0ic2hhcGUxMDk2Mi0yNCIgdHJhbnNmb3JtPSJ0cmFuc2xhdGUoMTgsLTU4LjUpIj4mI3hhOwkJCQkJCQk8dGl0bGUgaWQ9InRpdGxlMjU2MDczIj5yZWN0MTU0MjM8L3RpdGxlPiYjeGE7CQkJCQkJCTxyZWN0IGlkPSJyZWN0MjU2MDc1IiB5PSI2OS4wMSIgc3R5bGU9ImZpbGw6IzU1NkE4QTsiIHdpZHRoPSIxOS41IiBoZWlnaHQ9IjIuMjUiLz4mI3hhOwkJCQkJCTwvZz4mI3hhOwkJCQkJPC9nPiYjeGE7CQkJCQk8ZyBpZD0ic2hhcGUxMDk2My0yNiIgdHJhbnNmb3JtPSJ0cmFuc2xhdGUoMC43NSwtNTkuMjUpIj4mI3hhOwkJCQkJCTx0aXRsZSBpZD0idGl0bGUyNTYwNzkiPnJlY3QxNTQyNzwvdGl0bGU+JiN4YTsJCQkJCQk8cmVjdCBpZD0icmVjdDI1NjA4MSIgeT0iNjkuMDEiIHN0eWxlPSJmaWxsOiM1NTZBOEE7IiB3aWR0aD0iMi4yNSIgaGVpZ2h0PSIyLjI1Ii8+JiN4YTsJCQkJCTwvZz4mI3hhOwkJCQkJPGcgaWQ9InNoYXBlMTA5NjQtMjgiIHRyYW5zZm9ybT0idHJhbnNsYXRlKDAuNzUsLTU0KSI+JiN4YTsJCQkJCQk8dGl0bGUgaWQ9InRpdGxlMjU2MDg0Ij5yZWN0MTU0Mjk8L3RpdGxlPiYjeGE7CQkJCQkJPHJlY3QgaWQ9InJlY3QyNTYwODYiIHk9IjY5LjAxIiBzdHlsZT0iZmlsbDojNTU2QThBOyIgd2lkdGg9IjIuMjUiIGhlaWdodD0iMi4yNSIvPiYjeGE7CQkJCQk8L2c+JiN4YTsJCQkJCTxnIGlkPSJzaGFwZTEwOTY1LTMwIiB0cmFuc2Zvcm09InRyYW5zbGF0ZSgwLjc1LC00OC43NSkiPiYjeGE7CQkJCQkJPHRpdGxlIGlkPSJ0aXRsZTI1NjA4OSI+cmVjdDE1NDMxPC90aXRsZT4mI3hhOwkJCQkJCTxyZWN0IGlkPSJyZWN0MjU2MDkxIiB5PSI2OS4wMSIgc3R5bGU9ImZpbGw6IzU1NkE4QTsiIHdpZHRoPSIyLjI1IiBoZWlnaHQ9IjIuMjUiLz4mI3hhOwkJCQkJPC9nPiYjeGE7CQkJCTwvZz4mI3hhOwkJCQk8ZyBpZD0ic2hhcGUxMDk2Ni0zMiIgdHJhbnNmb3JtPSJ0cmFuc2xhdGUoMTMuNjk4MykiPiYjeGE7CQkJCQk8dGl0bGUgaWQ9InRpdGxlMjU2MDk1Ij5wb2x5Z29uMTU0MzUuMTE3Mzc8L3RpdGxlPiYjeGE7CQkJCQkmI3hhOwkJCQkJCTxwYXRoIGlkPSJwYXRoMjU2MDk3IiBpbmtzY2FwZTpjb25uZWN0b3ItY3VydmF0dXJlPSIwIiBzdHlsZT0iZmlsbDojRkZGRkZGO3N0cm9rZTojNTU2QThBO3N0cm9rZS13aWR0aDoxLjU7c3Ryb2tlLW1pdGVybGltaXQ6MzsiIGQ9IiAgICAgICBNOC4yNyw3MS4yNkwwLDU3LjAybDguMjctMTQuMjNoMTYuNTVsOC4yNywxNC4yM2wtOC4yNywxNC4yNEg4LjI3eiIvPiYjeGE7CQkJCTwvZz4mI3hhOwkJCTwvZz4mI3hhOwkJPC9nPiYjeGE7CQk8ZyBpZD0iZ3JvdXAxMDk2Ny0zNCIgdHJhbnNmb3JtPSJ0cmFuc2xhdGUoMjIuMDM2NiwtMy44NjEzMykiPiYjeGE7CQkJPHRpdGxlIGlkPSJ0aXRsZTI1NjEwMiI+U2hlZXQuMTA5Njc8L3RpdGxlPiYjeGE7CQkJPGcgaWQ9Imdyb3VwMTA5NjgtMzUiPiYjeGE7CQkJCTx0aXRsZSBpZD0idGl0bGUyNTYxMDQiPmcxNDUwPC90aXRsZT4mI3hhOwkJCQk8ZyBpZD0ic2hhcGUxMDk2OS0zNiI+JiN4YTsJCQkJCTx0aXRsZSBpZD0idGl0bGUyNTYxMDYiPnBhdGgxNDQyPC90aXRsZT4mI3hhOwkJCQkJPHBhdGggaWQ9InBhdGgyNTYxMDgiIGlua3NjYXBlOmNvbm5lY3Rvci1jdXJ2YXR1cmU9IjAiIHN0eWxlPSJmaWxsOiNGRkZGRkY7IiBkPSJNMTQuNzUsNTIuNmwtNC44LDAuMDVMMCw1Mi43M3YxNS40OSAgICAgICBjMCwxLjU5LDMuNDgsMi45NSw4LjAxLDMuMDRoMC4xN2MwLjYxLDAsMS4yLTAuMDQsMS43Ny0wLjA5YzEuNjYtMC4xLDMuMjgtMC41LDQuOC0xLjE4YzEuMDItMC41MSwxLjYxLTEuMTMsMS42MS0xLjc3VjUyLjU5ICAgICAgIEwxNC43NSw1Mi42eiIvPiYjeGE7CQkJCTwvZz4mI3hhOwkJCQk8ZyBpZD0ic2hhcGUxMDk3MC0zOCIgdHJhbnNmb3JtPSJ0cmFuc2xhdGUoOS45NTEzNCwtMC4wOTc0NTk4KSI+JiN4YTsJCQkJCTx0aXRsZSBpZD0idGl0bGUyNTYxMTEiPnBhdGgxNDQ0PC90aXRsZT4mI3hhOwkJCQkJPHBhdGggaWQ9InBhdGgyNTYxMTMiIGlua3NjYXBlOmNvbm5lY3Rvci1jdXJ2YXR1cmU9IjAiIHN0eWxlPSJmaWxsOiNFNUU1RTU7IiBkPSJNNC44LDUyLjd2MTcuMzggICAgICAgYy0xLjUyLDAuNjgtMy4xNCwxLjA4LTQuOCwxLjE4VjUyLjc0TDQuOCw1Mi43eiIvPiYjeGE7CQkJCTwvZz4mI3hhOwkJCQk8ZyBpZD0ic2hhcGUxMDk3MS00MCI+JiN4YTsJCQkJCTx0aXRsZSBpZD0idGl0bGUyNTYxMTYiPnBhdGgxNDQ2PC90aXRsZT4mI3hhOwkJCQkJPHBhdGggaWQ9InBhdGgyNTYxMTgiIGlua3NjYXBlOmNvbm5lY3Rvci1jdXJ2YXR1cmU9IjAiIHN0eWxlPSJmaWxsOm5vbmU7IiBkPSJNMCw1Mi43M3YxNS40OWMwLDEuNTksMy40NiwyLjk1LDguMDEsMy4wNGgwLjE3ICAgICAgIGM0LjYzLTAuMDYsOC4xOC0xLjQ0LDguMTgtMy4wNFY1Mi41OUwwLDUyLjczeiIvPiYjeGE7CQkJCQkmI3hhOwkJCQkJCTxwYXRoIGlkPSJwYXRoMjU2MTIwIiBpbmtzY2FwZTpjb25uZWN0b3ItY3VydmF0dXJlPSIwIiBzdHlsZT0iZmlsbDpub25lO3N0cm9rZTojNTU2QThBO3N0cm9rZS13aWR0aDoxLjU7c3Ryb2tlLW1pdGVybGltaXQ6MzsiIGQ9IiAgICAgICBNMCw1Mi43M3YxNS40OWMwLDEuNTksMy40NiwyLjk1LDguMDEsMy4wNGgwLjE3YzQuNjMtMC4wNiw4LjE4LTEuNDQsOC4xOC0zLjA0VjUyLjU5Ii8+JiN4YTsJCQkJPC9nPiYjeGE7CQkJCTxnIGlkPSJzaGFwZTEwOTcyLTQzIiB0cmFuc2Zvcm09InRyYW5zbGF0ZSgwLjAyMDg4NDIsLTE1LjUzMDkpIj4mI3hhOwkJCQkJPHRpdGxlIGlkPSJ0aXRsZTI1NjEyMyI+cGF0aDE0NDg8L3RpdGxlPiYjeGE7CQkJCQk8cGF0aCBpZD0icGF0aDI1NjEyNSIgaW5rc2NhcGU6Y29ubmVjdG9yLWN1cnZhdHVyZT0iMCIgc3R5bGU9ImZpbGw6IzU1RDJGNjsiIGQ9Ik0xNi4zNiw2OC4zYzAsMS42My0zLjY2LDIuOTYtOC4xOCwyLjk2ICAgICAgIFMwLDY5LjkzLDAsNjguM3MzLjc3LTIuOTUsOC4yOS0yLjk1czguMDcsMS4zMiw4LjA3LDIuOTZWNjguM3oiLz4mI3hhOwkJCQkJJiN4YTsJCQkJCQk8cGF0aCBpZD0icGF0aDI1NjEyNyIgaW5rc2NhcGU6Y29ubmVjdG9yLWN1cnZhdHVyZT0iMCIgc3R5bGU9ImZpbGw6bm9uZTtzdHJva2U6IzU1NkE4QTtzdHJva2Utd2lkdGg6MS41O3N0cm9rZS1taXRlcmxpbWl0OjM7IiBkPSIgICAgICAgTTE2LjM2LDY4LjNjMCwxLjYzLTMuNjYsMi45Ni04LjE4LDIuOTZTMCw2OS45MywwLDY4LjNzMy43Ny0yLjk1LDguMjktMi45NXM4LjA3LDEuMzIsOC4wNywyLjk2Ii8+JiN4YTsJCQkJPC9nPiYjeGE7CQkJPC9nPiYjeGE7CQk8L2c+JiN4YTsJPC9nPiYjeGE7PC9nPiYjeGE7PC9zdmc+;" parent="1" vertex="1">
          <mxGeometry x="199" y="222" width="48" height="70" as="geometry" />
        </mxCell>
        <mxCell id="9wjv7jFX8xUqSjr2dzsi-3" value="Dataverse" style="text;strokeColor=none;align=center;fillColor=none;html=1;verticalAlign=middle;whiteSpace=wrap;rounded=0;" parent="1" vertex="1">
          <mxGeometry x="193" y="199" width="60" height="30" as="geometry" />
        </mxCell>
        <mxCell id="9wjv7jFX8xUqSjr2dzsi-4" value="" style="shape=image;verticalLabelPosition=bottom;labelBackgroundColor=#ffffff;verticalAlign=top;aspect=fixed;imageAspect=0;image=data:image/svg+xml,PHN2ZyB4bWxuczpjYz0iaHR0cDovL2NyZWF0aXZlY29tbW9ucy5vcmcvbnMjIiB4bWxuczpkYz0iaHR0cDovL3B1cmwub3JnL2RjL2VsZW1lbnRzLzEuMS8iIHhtbG5zOmlua3NjYXBlPSJodHRwOi8vd3d3Lmlua3NjYXBlLm9yZy9uYW1lc3BhY2VzL2lua3NjYXBlIiB4bWxuczpyZGY9Imh0dHA6Ly93d3cudzMub3JnLzE5OTkvMDIvMjItcmRmLXN5bnRheC1ucyMiIHhtbG5zOnNvZGlwb2RpPSJodHRwOi8vc29kaXBvZGkuc291cmNlZm9yZ2UubmV0L0RURC9zb2RpcG9kaS0wLmR0ZCIgeG1sbnM6c3ZnPSJodHRwOi8vd3d3LnczLm9yZy8yMDAwL3N2ZyIgeG1sbnM9Imh0dHA6Ly93d3cudzMub3JnLzIwMDAvc3ZnIiB4bWxuczp4bGluaz0iaHR0cDovL3d3dy53My5vcmcvMTk5OS94bGluayIgdmVyc2lvbj0iMS4xIiBpZD0ic3ZnMjgwMDMiIGlua3NjYXBlOnZlcnNpb249IjAuOTIuMyAoMjQwNTU0NiwgMjAxOC0wMy0xMSkiIHNvZGlwb2RpOmRvY25hbWU9IndvcmtzcGFjZV9jbGVhbi5zdmciIHg9IjBweCIgeT0iMHB4IiB2aWV3Qm94PSIwIDAgOTYuNzUgNjMuNzUiIHN0eWxlPSJlbmFibGUtYmFja2dyb3VuZDpuZXcgMCAwIDk2Ljc1IDYzLjc1OyIgeG1sOnNwYWNlPSJwcmVzZXJ2ZSI+JiN4YTs8c29kaXBvZGk6bmFtZWR2aWV3IGJvcmRlcmNvbG9yPSIjNjY2NjY2IiBib3JkZXJvcGFjaXR5PSIxIiBmaXQtbWFyZ2luLWJvdHRvbT0iMCIgZml0LW1hcmdpbi1sZWZ0PSIwIiBmaXQtbWFyZ2luLXJpZ2h0PSIwIiBmaXQtbWFyZ2luLXRvcD0iMCIgZ3JpZHRvbGVyYW5jZT0iMTAiIGd1aWRldG9sZXJhbmNlPSIxMCIgaWQ9Im5hbWVkdmlldzI4MDA1IiBpbmtzY2FwZTpjdXJyZW50LWxheWVyPSJzdmcyODAwMyIgaW5rc2NhcGU6Y3g9IjY0LjQ5OTg0NCIgaW5rc2NhcGU6Y3k9IjQyLjQ5OTg5NiIgaW5rc2NhcGU6cGFnZW9wYWNpdHk9IjAiIGlua3NjYXBlOnBhZ2VzaGFkb3c9IjIiIGlua3NjYXBlOndpbmRvdy1oZWlnaHQ9IjEwMTciIGlua3NjYXBlOndpbmRvdy1tYXhpbWl6ZWQ9IjEiIGlua3NjYXBlOndpbmRvdy13aWR0aD0iMTkyMCIgaW5rc2NhcGU6d2luZG93LXg9Ii04IiBpbmtzY2FwZTp3aW5kb3cteT0iLTgiIGlua3NjYXBlOnpvb209IjkuOTY1NTE3MiIgb2JqZWN0dG9sZXJhbmNlPSIxMCIgcGFnZWNvbG9yPSIjZmZmZmZmIiBzaG93Z3JpZD0iZmFsc2UiPiYjeGE7CTwvc29kaXBvZGk6bmFtZWR2aWV3PiYjeGE7PGcgaWQ9ImcyODAwMSIgdHJhbnNmb3JtPSJ0cmFuc2xhdGUoLTAuNzUsLTAuNzUwMDUyNTEpIj4mI3hhOwk8dGl0bGUgaWQ9InRpdGxlMjc5NjgiPlBhZ2UtMTwvdGl0bGU+JiN4YTsJPGcgaWQ9Imdyb3VwOTI5OC0xIiB0cmFuc2Zvcm09InRyYW5zbGF0ZSgxLjUsLTAuNzUpIj4mI3hhOwkJPHRpdGxlIGlkPSJ0aXRsZTI3OTcwIj5Xb3Jrc3BhY2UgKENsZWFuKTwvdGl0bGU+JiN4YTsJCTxnIGlkPSJncm91cDkyOTktMiIgdHJhbnNmb3JtPSJ0cmFuc2xhdGUoMjUuNTIyNSkiPiYjeGE7CQkJPHRpdGxlIGlkPSJ0aXRsZTI3OTcyIj5nMTQ3MzwvdGl0bGU+JiN4YTsJCQk8ZyBpZD0ic2hhcGU5MzAwLTMiIHRyYW5zZm9ybT0idHJhbnNsYXRlKDIwLjEwNzUsLTAuMjg1KSI+JiN4YTsJCQkJPHRpdGxlIGlkPSJ0aXRsZTI3OTc0Ij5wb2x5Z29uMTQ2OTwvdGl0bGU+JiN4YTsJCQkJPHBhdGggaWQ9InBhdGgyNzk3NiIgaW5rc2NhcGU6Y29ubmVjdG9yLWN1cnZhdHVyZT0iMCIgc3R5bGU9ImZpbGw6IzU1NkE4QTsiIGQ9Ik0wLjcxLDU1LjI4aDIuODRsMC43Miw5Ljk3SDBMMC43MSw1NS4yOHoiLz4mI3hhOwkJCTwvZz4mI3hhOwkJCTxnIGlkPSJzaGFwZTkzMDEtNSI+JiN4YTsJCQkJPHRpdGxlIGlkPSJ0aXRsZTI3OTc5Ij5wb2x5Z29uMTQ3MTwvdGl0bGU+JiN4YTsJCQkJPHBhdGggaWQ9InBhdGgyNzk4MSIgaW5rc2NhcGU6Y29ubmVjdG9yLWN1cnZhdHVyZT0iMCIgc3R5bGU9ImZpbGw6IzU1NkE4QTsiIGQ9Ik0wLDY1LjI1aDQ0LjI1TDQwLjA5LDYzSDQuMTVMMCw2NS4yNXoiLz4mI3hhOwkJCTwvZz4mI3hhOwkJPC9nPiYjeGE7CQk8ZyBpZD0ic2hhcGU5MzAyLTciIHRyYW5zZm9ybT0idHJhbnNsYXRlKDAsLTEwLjk1KSI+JiN4YTsJCQk8dGl0bGUgaWQ9InRpdGxlMjc5ODUiPnBhdGgxNDc1PC90aXRsZT4mI3hhOwkJCTxwYXRoIGlkPSJwYXRoMjc5ODciIGlua3NjYXBlOmNvbm5lY3Rvci1jdXJ2YXR1cmU9IjAiIHN0eWxlPSJmaWxsOiNGQ0ZDRkM7IiBkPSJNOTUuNywxNS4zOXY0OS44NkgwVjE1LjM5ICAgICBjMC4wMy0xLjYzLDEuMzctMi45NCwzLTIuOTRoODkuNzNDOTQuMzUsMTIuNDcsOTUuNjcsMTMuNzcsOTUuNywxNS4zOXoiLz4mI3hhOwkJPC9nPiYjeGE7CQk8ZyBpZD0ic2hhcGU5MzAzLTkiIHRyYW5zZm9ybT0idHJhbnNsYXRlKDAsLTQ4LjkpIj4mI3hhOwkJCTx0aXRsZSBpZD0idGl0bGUyNzk5MCI+cGF0aDE0Nzc8L3RpdGxlPiYjeGE7CQkJPHBhdGggaWQ9InBhdGgyNzk5MiIgaW5rc2NhcGU6Y29ubmVjdG9yLWN1cnZhdHVyZT0iMCIgc3R5bGU9ImZpbGw6I0U1RTVFNTsiIGQ9Ik05NS43LDUzLjM0djExLjkxSDBWNTMuMzQgICAgIGMwLjAzLTEuNjMsMS4zNy0yLjk0LDMtMi45NGg4OS43M0M5NC4zNSw1MC40Miw5NS42Nyw1MS43Miw5NS43LDUzLjM0eiIvPiYjeGE7CQk8L2c+JiN4YTsJCTxnIGlkPSJzaGFwZTkzMDQtMTEiIHRyYW5zZm9ybT0idHJhbnNsYXRlKDAsLTEwLjUpIj4mI3hhOwkJCTx0aXRsZSBpZD0idGl0bGUyNzk5NSI+cGF0aDE0Nzk8L3RpdGxlPiYjeGE7CQkJJiN4YTsJCQkJPHBhdGggaWQ9InBhdGgyNzk5NyIgaW5rc2NhcGU6Y29ubmVjdG9yLWN1cnZhdHVyZT0iMCIgc3R5bGU9ImZpbGw6bm9uZTtzdHJva2U6IzU1NkE4QTtzdHJva2Utd2lkdGg6MS41O3N0cm9rZS1taXRlcmxpbWl0OjM7IiBkPSIgICAgIE05NS4yNSw2NS4yNVYxNS42N2MtMC4wMi0xLjYyLTEuMzQtMi45My0yLjk2LTIuOTJIMi45NWMtMS42MiwwLTIuOTMsMS4zLTIuOTUsMi45MnY0OS41OEg5NS4yNXoiLz4mI3hhOwkJPC9nPiYjeGE7CTwvZz4mI3hhOzwvZz4mI3hhOzwvc3ZnPg==;" parent="1" vertex="1">
          <mxGeometry x="-55" y="440" width="97" height="64" as="geometry" />
        </mxCell>
        <mxCell id="9wjv7jFX8xUqSjr2dzsi-5" value="" style="edgeStyle=none;orthogonalLoop=1;jettySize=auto;html=1;rounded=0;exitX=0;exitY=1;exitDx=0;exitDy=0;entryX=1;entryY=0;entryDx=0;entryDy=0;" parent="1" source="9wjv7jFX8xUqSjr2dzsi-1" target="9wjv7jFX8xUqSjr2dzsi-4" edge="1">
          <mxGeometry width="80" relative="1" as="geometry">
            <mxPoint x="163" y="289" as="sourcePoint" />
            <mxPoint x="110" y="291" as="targetPoint" />
            <Array as="points" />
          </mxGeometry>
        </mxCell>
        <mxCell id="9wjv7jFX8xUqSjr2dzsi-6" value="&lt;div&gt;Finnplan admin&lt;/div&gt;" style="edgeLabel;html=1;align=center;verticalAlign=middle;resizable=0;points=[];" parent="9wjv7jFX8xUqSjr2dzsi-5" vertex="1" connectable="0">
          <mxGeometry x="0.006" y="-1" relative="1" as="geometry">
            <mxPoint as="offset" />
          </mxGeometry>
        </mxCell>
        <mxCell id="9wjv7jFX8xUqSjr2dzsi-7" value="" style="shape=image;verticalLabelPosition=bottom;labelBackgroundColor=#ffffff;verticalAlign=top;aspect=fixed;imageAspect=0;image=data:image/svg+xml,PHN2ZyB4bWxuczpjYz0iaHR0cDovL2NyZWF0aXZlY29tbW9ucy5vcmcvbnMjIiB4bWxuczpkYz0iaHR0cDovL3B1cmwub3JnL2RjL2VsZW1lbnRzLzEuMS8iIHhtbG5zOmlua3NjYXBlPSJodHRwOi8vd3d3Lmlua3NjYXBlLm9yZy9uYW1lc3BhY2VzL2lua3NjYXBlIiB4bWxuczpyZGY9Imh0dHA6Ly93d3cudzMub3JnLzE5OTkvMDIvMjItcmRmLXN5bnRheC1ucyMiIHhtbG5zOnNvZGlwb2RpPSJodHRwOi8vc29kaXBvZGkuc291cmNlZm9yZ2UubmV0L0RURC9zb2RpcG9kaS0wLmR0ZCIgeG1sbnM6c3ZnPSJodHRwOi8vd3d3LnczLm9yZy8yMDAwL3N2ZyIgeG1sbnM9Imh0dHA6Ly93d3cudzMub3JnLzIwMDAvc3ZnIiB4bWxuczp4bGluaz0iaHR0cDovL3d3dy53My5vcmcvMTk5OS94bGluayIgdmVyc2lvbj0iMS4xIiBpZD0ic3ZnMjgwMDMiIGlua3NjYXBlOnZlcnNpb249IjAuOTIuMyAoMjQwNTU0NiwgMjAxOC0wMy0xMSkiIHNvZGlwb2RpOmRvY25hbWU9IndvcmtzcGFjZV9jbGVhbi5zdmciIHg9IjBweCIgeT0iMHB4IiB2aWV3Qm94PSIwIDAgOTYuNzUgNjMuNzUiIHN0eWxlPSJlbmFibGUtYmFja2dyb3VuZDpuZXcgMCAwIDk2Ljc1IDYzLjc1OyIgeG1sOnNwYWNlPSJwcmVzZXJ2ZSI+JiN4YTs8c29kaXBvZGk6bmFtZWR2aWV3IGJvcmRlcmNvbG9yPSIjNjY2NjY2IiBib3JkZXJvcGFjaXR5PSIxIiBmaXQtbWFyZ2luLWJvdHRvbT0iMCIgZml0LW1hcmdpbi1sZWZ0PSIwIiBmaXQtbWFyZ2luLXJpZ2h0PSIwIiBmaXQtbWFyZ2luLXRvcD0iMCIgZ3JpZHRvbGVyYW5jZT0iMTAiIGd1aWRldG9sZXJhbmNlPSIxMCIgaWQ9Im5hbWVkdmlldzI4MDA1IiBpbmtzY2FwZTpjdXJyZW50LWxheWVyPSJzdmcyODAwMyIgaW5rc2NhcGU6Y3g9IjY0LjQ5OTg0NCIgaW5rc2NhcGU6Y3k9IjQyLjQ5OTg5NiIgaW5rc2NhcGU6cGFnZW9wYWNpdHk9IjAiIGlua3NjYXBlOnBhZ2VzaGFkb3c9IjIiIGlua3NjYXBlOndpbmRvdy1oZWlnaHQ9IjEwMTciIGlua3NjYXBlOndpbmRvdy1tYXhpbWl6ZWQ9IjEiIGlua3NjYXBlOndpbmRvdy13aWR0aD0iMTkyMCIgaW5rc2NhcGU6d2luZG93LXg9Ii04IiBpbmtzY2FwZTp3aW5kb3cteT0iLTgiIGlua3NjYXBlOnpvb209IjkuOTY1NTE3MiIgb2JqZWN0dG9sZXJhbmNlPSIxMCIgcGFnZWNvbG9yPSIjZmZmZmZmIiBzaG93Z3JpZD0iZmFsc2UiPiYjeGE7CTwvc29kaXBvZGk6bmFtZWR2aWV3PiYjeGE7PGcgaWQ9ImcyODAwMSIgdHJhbnNmb3JtPSJ0cmFuc2xhdGUoLTAuNzUsLTAuNzUwMDUyNTEpIj4mI3hhOwk8dGl0bGUgaWQ9InRpdGxlMjc5NjgiPlBhZ2UtMTwvdGl0bGU+JiN4YTsJPGcgaWQ9Imdyb3VwOTI5OC0xIiB0cmFuc2Zvcm09InRyYW5zbGF0ZSgxLjUsLTAuNzUpIj4mI3hhOwkJPHRpdGxlIGlkPSJ0aXRsZTI3OTcwIj5Xb3Jrc3BhY2UgKENsZWFuKTwvdGl0bGU+JiN4YTsJCTxnIGlkPSJncm91cDkyOTktMiIgdHJhbnNmb3JtPSJ0cmFuc2xhdGUoMjUuNTIyNSkiPiYjeGE7CQkJPHRpdGxlIGlkPSJ0aXRsZTI3OTcyIj5nMTQ3MzwvdGl0bGU+JiN4YTsJCQk8ZyBpZD0ic2hhcGU5MzAwLTMiIHRyYW5zZm9ybT0idHJhbnNsYXRlKDIwLjEwNzUsLTAuMjg1KSI+JiN4YTsJCQkJPHRpdGxlIGlkPSJ0aXRsZTI3OTc0Ij5wb2x5Z29uMTQ2OTwvdGl0bGU+JiN4YTsJCQkJPHBhdGggaWQ9InBhdGgyNzk3NiIgaW5rc2NhcGU6Y29ubmVjdG9yLWN1cnZhdHVyZT0iMCIgc3R5bGU9ImZpbGw6IzU1NkE4QTsiIGQ9Ik0wLjcxLDU1LjI4aDIuODRsMC43Miw5Ljk3SDBMMC43MSw1NS4yOHoiLz4mI3hhOwkJCTwvZz4mI3hhOwkJCTxnIGlkPSJzaGFwZTkzMDEtNSI+JiN4YTsJCQkJPHRpdGxlIGlkPSJ0aXRsZTI3OTc5Ij5wb2x5Z29uMTQ3MTwvdGl0bGU+JiN4YTsJCQkJPHBhdGggaWQ9InBhdGgyNzk4MSIgaW5rc2NhcGU6Y29ubmVjdG9yLWN1cnZhdHVyZT0iMCIgc3R5bGU9ImZpbGw6IzU1NkE4QTsiIGQ9Ik0wLDY1LjI1aDQ0LjI1TDQwLjA5LDYzSDQuMTVMMCw2NS4yNXoiLz4mI3hhOwkJCTwvZz4mI3hhOwkJPC9nPiYjeGE7CQk8ZyBpZD0ic2hhcGU5MzAyLTciIHRyYW5zZm9ybT0idHJhbnNsYXRlKDAsLTEwLjk1KSI+JiN4YTsJCQk8dGl0bGUgaWQ9InRpdGxlMjc5ODUiPnBhdGgxNDc1PC90aXRsZT4mI3hhOwkJCTxwYXRoIGlkPSJwYXRoMjc5ODciIGlua3NjYXBlOmNvbm5lY3Rvci1jdXJ2YXR1cmU9IjAiIHN0eWxlPSJmaWxsOiNGQ0ZDRkM7IiBkPSJNOTUuNywxNS4zOXY0OS44NkgwVjE1LjM5ICAgICBjMC4wMy0xLjYzLDEuMzctMi45NCwzLTIuOTRoODkuNzNDOTQuMzUsMTIuNDcsOTUuNjcsMTMuNzcsOTUuNywxNS4zOXoiLz4mI3hhOwkJPC9nPiYjeGE7CQk8ZyBpZD0ic2hhcGU5MzAzLTkiIHRyYW5zZm9ybT0idHJhbnNsYXRlKDAsLTQ4LjkpIj4mI3hhOwkJCTx0aXRsZSBpZD0idGl0bGUyNzk5MCI+cGF0aDE0Nzc8L3RpdGxlPiYjeGE7CQkJPHBhdGggaWQ9InBhdGgyNzk5MiIgaW5rc2NhcGU6Y29ubmVjdG9yLWN1cnZhdHVyZT0iMCIgc3R5bGU9ImZpbGw6I0U1RTVFNTsiIGQ9Ik05NS43LDUzLjM0djExLjkxSDBWNTMuMzQgICAgIGMwLjAzLTEuNjMsMS4zNy0yLjk0LDMtMi45NGg4OS43M0M5NC4zNSw1MC40Miw5NS42Nyw1MS43Miw5NS43LDUzLjM0eiIvPiYjeGE7CQk8L2c+JiN4YTsJCTxnIGlkPSJzaGFwZTkzMDQtMTEiIHRyYW5zZm9ybT0idHJhbnNsYXRlKDAsLTEwLjUpIj4mI3hhOwkJCTx0aXRsZSBpZD0idGl0bGUyNzk5NSI+cGF0aDE0Nzk8L3RpdGxlPiYjeGE7CQkJJiN4YTsJCQkJPHBhdGggaWQ9InBhdGgyNzk5NyIgaW5rc2NhcGU6Y29ubmVjdG9yLWN1cnZhdHVyZT0iMCIgc3R5bGU9ImZpbGw6bm9uZTtzdHJva2U6IzU1NkE4QTtzdHJva2Utd2lkdGg6MS41O3N0cm9rZS1taXRlcmxpbWl0OjM7IiBkPSIgICAgIE05NS4yNSw2NS4yNVYxNS42N2MtMC4wMi0xLjYyLTEuMzQtMi45My0yLjk2LTIuOTJIMi45NWMtMS42MiwwLTIuOTMsMS4zLTIuOTUsMi45MnY0OS41OEg5NS4yNXoiLz4mI3hhOwkJPC9nPiYjeGE7CTwvZz4mI3hhOzwvZz4mI3hhOzwvc3ZnPg==;" parent="1" vertex="1">
          <mxGeometry x="174.5" y="440" width="97" height="64" as="geometry" />
        </mxCell>
        <mxCell id="9wjv7jFX8xUqSjr2dzsi-9" value="" style="edgeStyle=none;orthogonalLoop=1;jettySize=auto;html=1;rounded=0;exitX=0.5;exitY=1;exitDx=0;exitDy=0;entryX=0.5;entryY=0;entryDx=0;entryDy=0;" parent="1" source="9wjv7jFX8xUqSjr2dzsi-1" target="9wjv7jFX8xUqSjr2dzsi-7" edge="1">
          <mxGeometry width="80" relative="1" as="geometry">
            <mxPoint x="181" y="472" as="sourcePoint" />
            <mxPoint x="303" y="348" as="targetPoint" />
            <Array as="points" />
          </mxGeometry>
        </mxCell>
        <mxCell id="9wjv7jFX8xUqSjr2dzsi-10" value="&lt;div&gt;Finnplan prod&lt;/div&gt;" style="edgeLabel;html=1;align=center;verticalAlign=middle;resizable=0;points=[];" parent="9wjv7jFX8xUqSjr2dzsi-9" vertex="1" connectable="0">
          <mxGeometry x="0.006" y="-1" relative="1" as="geometry">
            <mxPoint as="offset" />
          </mxGeometry>
        </mxCell>
        <mxCell id="9wjv7jFX8xUqSjr2dzsi-11" value="" style="shape=image;verticalLabelPosition=bottom;labelBackgroundColor=#ffffff;verticalAlign=top;aspect=fixed;imageAspect=0;image=data:image/svg+xml,PHN2ZyB4bWxuczpjYz0iaHR0cDovL2NyZWF0aXZlY29tbW9ucy5vcmcvbnMjIiB4bWxuczpkYz0iaHR0cDovL3B1cmwub3JnL2RjL2VsZW1lbnRzLzEuMS8iIHhtbG5zOmlua3NjYXBlPSJodHRwOi8vd3d3Lmlua3NjYXBlLm9yZy9uYW1lc3BhY2VzL2lua3NjYXBlIiB4bWxuczpyZGY9Imh0dHA6Ly93d3cudzMub3JnLzE5OTkvMDIvMjItcmRmLXN5bnRheC1ucyMiIHhtbG5zOnNvZGlwb2RpPSJodHRwOi8vc29kaXBvZGkuc291cmNlZm9yZ2UubmV0L0RURC9zb2RpcG9kaS0wLmR0ZCIgeG1sbnM6c3ZnPSJodHRwOi8vd3d3LnczLm9yZy8yMDAwL3N2ZyIgeG1sbnM9Imh0dHA6Ly93d3cudzMub3JnLzIwMDAvc3ZnIiB4bWxuczp4bGluaz0iaHR0cDovL3d3dy53My5vcmcvMTk5OS94bGluayIgdmVyc2lvbj0iMS4xIiBpZD0ic3ZnMjgwMDMiIGlua3NjYXBlOnZlcnNpb249IjAuOTIuMyAoMjQwNTU0NiwgMjAxOC0wMy0xMSkiIHNvZGlwb2RpOmRvY25hbWU9IndvcmtzcGFjZV9jbGVhbi5zdmciIHg9IjBweCIgeT0iMHB4IiB2aWV3Qm94PSIwIDAgOTYuNzUgNjMuNzUiIHN0eWxlPSJlbmFibGUtYmFja2dyb3VuZDpuZXcgMCAwIDk2Ljc1IDYzLjc1OyIgeG1sOnNwYWNlPSJwcmVzZXJ2ZSI+JiN4YTs8c29kaXBvZGk6bmFtZWR2aWV3IGJvcmRlcmNvbG9yPSIjNjY2NjY2IiBib3JkZXJvcGFjaXR5PSIxIiBmaXQtbWFyZ2luLWJvdHRvbT0iMCIgZml0LW1hcmdpbi1sZWZ0PSIwIiBmaXQtbWFyZ2luLXJpZ2h0PSIwIiBmaXQtbWFyZ2luLXRvcD0iMCIgZ3JpZHRvbGVyYW5jZT0iMTAiIGd1aWRldG9sZXJhbmNlPSIxMCIgaWQ9Im5hbWVkdmlldzI4MDA1IiBpbmtzY2FwZTpjdXJyZW50LWxheWVyPSJzdmcyODAwMyIgaW5rc2NhcGU6Y3g9IjY0LjQ5OTg0NCIgaW5rc2NhcGU6Y3k9IjQyLjQ5OTg5NiIgaW5rc2NhcGU6cGFnZW9wYWNpdHk9IjAiIGlua3NjYXBlOnBhZ2VzaGFkb3c9IjIiIGlua3NjYXBlOndpbmRvdy1oZWlnaHQ9IjEwMTciIGlua3NjYXBlOndpbmRvdy1tYXhpbWl6ZWQ9IjEiIGlua3NjYXBlOndpbmRvdy13aWR0aD0iMTkyMCIgaW5rc2NhcGU6d2luZG93LXg9Ii04IiBpbmtzY2FwZTp3aW5kb3cteT0iLTgiIGlua3NjYXBlOnpvb209IjkuOTY1NTE3MiIgb2JqZWN0dG9sZXJhbmNlPSIxMCIgcGFnZWNvbG9yPSIjZmZmZmZmIiBzaG93Z3JpZD0iZmFsc2UiPiYjeGE7CTwvc29kaXBvZGk6bmFtZWR2aWV3PiYjeGE7PGcgaWQ9ImcyODAwMSIgdHJhbnNmb3JtPSJ0cmFuc2xhdGUoLTAuNzUsLTAuNzUwMDUyNTEpIj4mI3hhOwk8dGl0bGUgaWQ9InRpdGxlMjc5NjgiPlBhZ2UtMTwvdGl0bGU+JiN4YTsJPGcgaWQ9Imdyb3VwOTI5OC0xIiB0cmFuc2Zvcm09InRyYW5zbGF0ZSgxLjUsLTAuNzUpIj4mI3hhOwkJPHRpdGxlIGlkPSJ0aXRsZTI3OTcwIj5Xb3Jrc3BhY2UgKENsZWFuKTwvdGl0bGU+JiN4YTsJCTxnIGlkPSJncm91cDkyOTktMiIgdHJhbnNmb3JtPSJ0cmFuc2xhdGUoMjUuNTIyNSkiPiYjeGE7CQkJPHRpdGxlIGlkPSJ0aXRsZTI3OTcyIj5nMTQ3MzwvdGl0bGU+JiN4YTsJCQk8ZyBpZD0ic2hhcGU5MzAwLTMiIHRyYW5zZm9ybT0idHJhbnNsYXRlKDIwLjEwNzUsLTAuMjg1KSI+JiN4YTsJCQkJPHRpdGxlIGlkPSJ0aXRsZTI3OTc0Ij5wb2x5Z29uMTQ2OTwvdGl0bGU+JiN4YTsJCQkJPHBhdGggaWQ9InBhdGgyNzk3NiIgaW5rc2NhcGU6Y29ubmVjdG9yLWN1cnZhdHVyZT0iMCIgc3R5bGU9ImZpbGw6IzU1NkE4QTsiIGQ9Ik0wLjcxLDU1LjI4aDIuODRsMC43Miw5Ljk3SDBMMC43MSw1NS4yOHoiLz4mI3hhOwkJCTwvZz4mI3hhOwkJCTxnIGlkPSJzaGFwZTkzMDEtNSI+JiN4YTsJCQkJPHRpdGxlIGlkPSJ0aXRsZTI3OTc5Ij5wb2x5Z29uMTQ3MTwvdGl0bGU+JiN4YTsJCQkJPHBhdGggaWQ9InBhdGgyNzk4MSIgaW5rc2NhcGU6Y29ubmVjdG9yLWN1cnZhdHVyZT0iMCIgc3R5bGU9ImZpbGw6IzU1NkE4QTsiIGQ9Ik0wLDY1LjI1aDQ0LjI1TDQwLjA5LDYzSDQuMTVMMCw2NS4yNXoiLz4mI3hhOwkJCTwvZz4mI3hhOwkJPC9nPiYjeGE7CQk8ZyBpZD0ic2hhcGU5MzAyLTciIHRyYW5zZm9ybT0idHJhbnNsYXRlKDAsLTEwLjk1KSI+JiN4YTsJCQk8dGl0bGUgaWQ9InRpdGxlMjc5ODUiPnBhdGgxNDc1PC90aXRsZT4mI3hhOwkJCTxwYXRoIGlkPSJwYXRoMjc5ODciIGlua3NjYXBlOmNvbm5lY3Rvci1jdXJ2YXR1cmU9IjAiIHN0eWxlPSJmaWxsOiNGQ0ZDRkM7IiBkPSJNOTUuNywxNS4zOXY0OS44NkgwVjE1LjM5ICAgICBjMC4wMy0xLjYzLDEuMzctMi45NCwzLTIuOTRoODkuNzNDOTQuMzUsMTIuNDcsOTUuNjcsMTMuNzcsOTUuNywxNS4zOXoiLz4mI3hhOwkJPC9nPiYjeGE7CQk8ZyBpZD0ic2hhcGU5MzAzLTkiIHRyYW5zZm9ybT0idHJhbnNsYXRlKDAsLTQ4LjkpIj4mI3hhOwkJCTx0aXRsZSBpZD0idGl0bGUyNzk5MCI+cGF0aDE0Nzc8L3RpdGxlPiYjeGE7CQkJPHBhdGggaWQ9InBhdGgyNzk5MiIgaW5rc2NhcGU6Y29ubmVjdG9yLWN1cnZhdHVyZT0iMCIgc3R5bGU9ImZpbGw6I0U1RTVFNTsiIGQ9Ik05NS43LDUzLjM0djExLjkxSDBWNTMuMzQgICAgIGMwLjAzLTEuNjMsMS4zNy0yLjk0LDMtMi45NGg4OS43M0M5NC4zNSw1MC40Miw5NS42Nyw1MS43Miw5NS43LDUzLjM0eiIvPiYjeGE7CQk8L2c+JiN4YTsJCTxnIGlkPSJzaGFwZTkzMDQtMTEiIHRyYW5zZm9ybT0idHJhbnNsYXRlKDAsLTEwLjUpIj4mI3hhOwkJCTx0aXRsZSBpZD0idGl0bGUyNzk5NSI+cGF0aDE0Nzk8L3RpdGxlPiYjeGE7CQkJJiN4YTsJCQkJPHBhdGggaWQ9InBhdGgyNzk5NyIgaW5rc2NhcGU6Y29ubmVjdG9yLWN1cnZhdHVyZT0iMCIgc3R5bGU9ImZpbGw6bm9uZTtzdHJva2U6IzU1NkE4QTtzdHJva2Utd2lkdGg6MS41O3N0cm9rZS1taXRlcmxpbWl0OjM7IiBkPSIgICAgIE05NS4yNSw2NS4yNVYxNS42N2MtMC4wMi0xLjYyLTEuMzQtMi45My0yLjk2LTIuOTJIMi45NWMtMS42MiwwLTIuOTMsMS4zLTIuOTUsMi45MnY0OS41OEg5NS4yNXoiLz4mI3hhOwkJPC9nPiYjeGE7CTwvZz4mI3hhOzwvZz4mI3hhOzwvc3ZnPg==;" parent="1" vertex="1">
          <mxGeometry x="370" y="440" width="97" height="64" as="geometry" />
        </mxCell>
        <mxCell id="9wjv7jFX8xUqSjr2dzsi-12" value="" style="edgeStyle=none;orthogonalLoop=1;jettySize=auto;html=1;rounded=0;exitX=1;exitY=1;exitDx=0;exitDy=0;entryX=0;entryY=0;entryDx=0;entryDy=0;" parent="1" source="9wjv7jFX8xUqSjr2dzsi-1" target="9wjv7jFX8xUqSjr2dzsi-11" edge="1">
          <mxGeometry width="80" relative="1" as="geometry">
            <mxPoint x="398" y="239" as="sourcePoint" />
            <mxPoint x="448" y="288" as="targetPoint" />
            <Array as="points" />
          </mxGeometry>
        </mxCell>
        <mxCell id="9wjv7jFX8xUqSjr2dzsi-13" value="&lt;div&gt;Finnplan Last&lt;/div&gt;" style="edgeLabel;html=1;align=center;verticalAlign=middle;resizable=0;points=[];" parent="9wjv7jFX8xUqSjr2dzsi-12" vertex="1" connectable="0">
          <mxGeometry x="0.006" y="-1" relative="1" as="geometry">
            <mxPoint as="offset" />
          </mxGeometry>
        </mxCell>
        <mxCell id="9wjv7jFX8xUqSjr2dzsi-15" value="" style="edgeStyle=none;orthogonalLoop=1;jettySize=auto;html=1;rounded=0;entryX=0;entryY=0;entryDx=0;entryDy=0;exitX=0.5;exitY=1;exitDx=0;exitDy=0;" parent="1" source="9wjv7jFX8xUqSjr2dzsi-17" target="9wjv7jFX8xUqSjr2dzsi-3" edge="1">
          <mxGeometry width="80" relative="1" as="geometry">
            <mxPoint x="127" y="125" as="sourcePoint" />
            <mxPoint x="321" y="211" as="targetPoint" />
            <Array as="points" />
          </mxGeometry>
        </mxCell>
        <mxCell id="9wjv7jFX8xUqSjr2dzsi-16" value="&lt;div&gt;Generate QR with link&lt;/div&gt;" style="edgeLabel;html=1;align=center;verticalAlign=middle;resizable=0;points=[];" parent="9wjv7jFX8xUqSjr2dzsi-15" vertex="1" connectable="0">
          <mxGeometry x="0.006" y="-1" relative="1" as="geometry">
            <mxPoint as="offset" />
          </mxGeometry>
        </mxCell>
        <mxCell id="9wjv7jFX8xUqSjr2dzsi-17" value="" style="shape=image;verticalLabelPosition=bottom;labelBackgroundColor=#ffffff;verticalAlign=top;aspect=fixed;imageAspect=0;image=data:image/svg+xml,PHN2ZyB4bWxuczpkYz0iaHR0cDovL3B1cmwub3JnL2RjL2VsZW1lbnRzLzEuMS8iIHhtbG5zOmNjPSJodHRwOi8vY3JlYXRpdmVjb21tb25zLm9yZy9ucyMiIHhtbG5zOnJkZj0iaHR0cDovL3d3dy53My5vcmcvMTk5OS8wMi8yMi1yZGYtc3ludGF4LW5zIyIgeG1sbnM6c3ZnPSJodHRwOi8vd3d3LnczLm9yZy8yMDAwL3N2ZyIgeG1sbnM9Imh0dHA6Ly93d3cudzMub3JnLzIwMDAvc3ZnIiB4bWxuczpzb2RpcG9kaT0iaHR0cDovL3NvZGlwb2RpLnNvdXJjZWZvcmdlLm5ldC9EVEQvc29kaXBvZGktMC5kdGQiIHhtbG5zOmlua3NjYXBlPSJodHRwOi8vd3d3Lmlua3NjYXBlLm9yZy9uYW1lc3BhY2VzL2lua3NjYXBlIiB2ZXJzaW9uPSIxLjEiIGlkPSJzdmcxNTY4NTIiIGlua3NjYXBlOnZlcnNpb249IjAuOTIuMyAoMjQwNTU0NiwgMjAxOC0wMy0xMSkiIHNvZGlwb2RpOmRvY25hbWU9ImF6dXJlX2Z1bmN0aW9ucy5zdmciIHg9IjBweCIgeT0iMHB4IiB2aWV3Qm94PSIwIDAgNTcuMzE0MDI4IDUyLjgyIiB4bWw6c3BhY2U9InByZXNlcnZlIiB3aWR0aD0iNTcuMzE0MDMiIGhlaWdodD0iNTIuODIiPjxtZXRhZGF0YSBpZD0ibWV0YWRhdGEyMDc1MSI+PHJkZjpSREY+PGNjOldvcmsgcmRmOmFib3V0PSIiPjxkYzpmb3JtYXQ+aW1hZ2Uvc3ZnK3htbDwvZGM6Zm9ybWF0PjxkYzp0eXBlIHJkZjpyZXNvdXJjZT0iaHR0cDovL3B1cmwub3JnL2RjL2RjbWl0eXBlL1N0aWxsSW1hZ2UiLz48ZGM6dGl0bGUvPjwvY2M6V29yaz48L3JkZjpSREY+PC9tZXRhZGF0YT48ZGVmcyBpZD0iZGVmczIwNzQ5Ij4mI3hhOwkmI3hhOyYjeGE7CSYjeGE7JiN4YTsJJiN4YTsmI3hhOwkmI3hhOzwvZGVmcz4mI3hhOzxmaWx0ZXIgaWQ9ImZpbHRlcl8yIj4mI3hhOwk8ZmVHYXVzc2lhbkJsdXIgaWQ9ImZlR2F1c3NpYW5CbHVyMTU2ODA5IiBzdGREZXZpYXRpb249IjIiLz4mI3hhOzwvZmlsdGVyPiYjeGE7PHNvZGlwb2RpOm5hbWVkdmlldyBib3JkZXJjb2xvcj0iIzY2NjY2NiIgYm9yZGVyb3BhY2l0eT0iMSIgZml0LW1hcmdpbi1ib3R0b209IjAiIGZpdC1tYXJnaW4tbGVmdD0iMCIgZml0LW1hcmdpbi1yaWdodD0iMCIgZml0LW1hcmdpbi10b3A9IjAiIGdyaWR0b2xlcmFuY2U9IjEwIiBndWlkZXRvbGVyYW5jZT0iMTAiIGlkPSJuYW1lZHZpZXcxNTY4NTQiIGlua3NjYXBlOmN1cnJlbnQtbGF5ZXI9InN2ZzE1Njg1MiIgaW5rc2NhcGU6Y3g9Ii00NC42NTA3MTUiIGlua3NjYXBlOmN5PSIyMy4yNzUwMDEiIGlua3NjYXBlOnBhZ2VvcGFjaXR5PSIwIiBpbmtzY2FwZTpwYWdlc2hhZG93PSIyIiBpbmtzY2FwZTp3aW5kb3ctaGVpZ2h0PSIxMDE3IiBpbmtzY2FwZTp3aW5kb3ctbWF4aW1pemVkPSIxIiBpbmtzY2FwZTp3aW5kb3ctd2lkdGg9IjE5MjAiIGlua3NjYXBlOndpbmRvdy14PSItOCIgaW5rc2NhcGU6d2luZG93LXk9Ii04IiBpbmtzY2FwZTp6b29tPSI2LjM5MTY4MjgiIG9iamVjdHRvbGVyYW5jZT0iMTAiIHBhZ2Vjb2xvcj0iI2ZmZmZmZiIgc2hvd2dyaWQ9ImZhbHNlIj4mI3hhOwk8L3NvZGlwb2RpOm5hbWVkdmlldz4mI3hhOyYjeGE7PHBhdGggaWQ9InBhdGgxNTY4MjIiIGlua3NjYXBlOmNvbm5lY3Rvci1jdXJ2YXR1cmU9IjAiIHN0eWxlPSJmaWxsOiMzZjU3NjUiIGQ9Im0gNTYuOTQyMDE0LDI2Ljc3IGMgMC41NCwtMC41MyAwLjQ1LC0xLjUyIDAsLTIuMDYgbCAtMi43NywtMi43NyAtMTIuMzYsLTEyIGMgLTAuNTMsLTAuNTMgLTEuMzQsLTAuNTMgLTEuOTYsMCAtMC41NCwwLjU0IC0wLjcyLDEuNTMgMCwyLjA2IGwgMTIuOTcsMTIuNzEgYyAwLjU0LDAuNTQgMC41NCwxLjUzIDAsMi4wNiBsIC0xMy4yNCwxMy4xNiBjIC0wLjU0LDAuNTQgLTAuNTQsMS41MiAwLDIuMDYgMC41MywwLjU0IDEuNTIsMC40NSAxLjk3LDAgbCAxMi4yNiwtMTIuMTcgYyAwLDAgMCwwIDAuMDksLTAuMDkgeiIvPiYjeGE7JiN4YTs8cGF0aCBpZD0icGF0aDE1NjgzMCIgaW5rc2NhcGU6Y29ubmVjdG9yLWN1cnZhdHVyZT0iMCIgc3R5bGU9ImZpbGw6IzNmNTc2NSIgZD0ibSAwLjM3MjAxMzksMjYuNzcgYyAtMC41NCwtMC41MyAtMC40NSwtMS41MiAwLC0yLjA2IGwgMi43NywtMi43NyAxMi4zNTAwMDAxLC0xMiBjIDAuNTQsLTAuNTMgMS4zNSwtMC41MyAxLjk3LDAgMC41NCwwLjU0IDAuNzIsMS41MyAwLDIuMDYgTCA0Ljc1MjAxMzksMjQuNzEgYyAtMC41MywwLjU0IC0wLjUzLDEuNTMgMCwyLjA2IEwgMTcuNzMyMDE0LDM5LjkzIGMgMC41NCwwLjU0IDAuNTQsMS41MiAwLDIuMDYgLTAuNTMsMC41NCAtMS41MiwwLjQ1IC0xLjk3LDAgTCAzLjIzMjAxMzksMzAgYyAwLDAgMCwwIC0wLjA5LC0wLjA5IHoiLz4mI3hhOyYjeGE7PHBhdGggaWQ9InBhdGgxNTY4MzgiIGlua3NjYXBlOmNvbm5lY3Rvci1jdXJ2YXR1cmU9IjAiIHN0eWxlPSJmaWxsOiMzZjU3NjUiIGQ9Im0gNDIuNjIyMDE0LDAgaCAtMTcuNDUgbCAtOS40LDI2LjUgMTEuNDYsMC4wOSAtOC45NSwyNi4yMyAyNC43LC0zNSBoIC0xMS45OSB6Ii8+JiN4YTsmI3hhOzxwYXRoIGlkPSJwYXRoMTU2ODQ2IiBpbmtzY2FwZTpjb25uZWN0b3ItY3VydmF0dXJlPSIwIiBzdHlsZT0iZmlsbDojMGMwYzBjO2ZpbGwtb3BhY2l0eTowLjMiIGQ9Ik0gMzAuOTgyMDE0LDE3LjgyIDQyLjYyMjAxNCwwIGggLTkuMTMgbCAtOS42NywyMi4wMiAxMS40NiwwLjA5IC0xNy4wMSwzMC43MSAyNC43MSwtMzUgeiIvPiYjeGE7PC9zdmc+;" parent="1" vertex="1">
          <mxGeometry x="-6.999999999999972" y="67" width="57" height="53" as="geometry" />
        </mxCell>
        <mxCell id="9wjv7jFX8xUqSjr2dzsi-18" value="" style="edgeStyle=none;orthogonalLoop=1;jettySize=auto;html=1;rounded=0;entryX=0.5;entryY=0;entryDx=0;entryDy=0;exitX=0.5;exitY=1;exitDx=0;exitDy=0;" parent="1" source="9wjv7jFX8xUqSjr2dzsi-20" target="9wjv7jFX8xUqSjr2dzsi-3" edge="1">
          <mxGeometry width="80" relative="1" as="geometry">
            <mxPoint x="320" y="106" as="sourcePoint" />
            <mxPoint x="219" y="199" as="targetPoint" />
            <Array as="points" />
          </mxGeometry>
        </mxCell>
        <mxCell id="9wjv7jFX8xUqSjr2dzsi-19" value="&lt;div&gt;Element Dokumentasjon&lt;/div&gt;" style="edgeLabel;html=1;align=center;verticalAlign=middle;resizable=0;points=[];" parent="9wjv7jFX8xUqSjr2dzsi-18" vertex="1" connectable="0">
          <mxGeometry x="0.006" y="-1" relative="1" as="geometry">
            <mxPoint as="offset" />
          </mxGeometry>
        </mxCell>
        <mxCell id="9wjv7jFX8xUqSjr2dzsi-20" value="" style="shape=image;verticalLabelPosition=bottom;labelBackgroundColor=#ffffff;verticalAlign=top;aspect=fixed;imageAspect=0;image=data:image/svg+xml,PHN2ZyB4bWxuczpkYz0iaHR0cDovL3B1cmwub3JnL2RjL2VsZW1lbnRzLzEuMS8iIHhtbG5zOmNjPSJodHRwOi8vY3JlYXRpdmVjb21tb25zLm9yZy9ucyMiIHhtbG5zOnJkZj0iaHR0cDovL3d3dy53My5vcmcvMTk5OS8wMi8yMi1yZGYtc3ludGF4LW5zIyIgeG1sbnM6c3ZnPSJodHRwOi8vd3d3LnczLm9yZy8yMDAwL3N2ZyIgeG1sbnM9Imh0dHA6Ly93d3cudzMub3JnLzIwMDAvc3ZnIiB4bWxuczpzb2RpcG9kaT0iaHR0cDovL3NvZGlwb2RpLnNvdXJjZWZvcmdlLm5ldC9EVEQvc29kaXBvZGktMC5kdGQiIHhtbG5zOmlua3NjYXBlPSJodHRwOi8vd3d3Lmlua3NjYXBlLm9yZy9uYW1lc3BhY2VzL2lua3NjYXBlIiB2ZXJzaW9uPSIxLjEiIGlkPSJzdmcxNTY4NTIiIGlua3NjYXBlOnZlcnNpb249IjAuOTIuMyAoMjQwNTU0NiwgMjAxOC0wMy0xMSkiIHNvZGlwb2RpOmRvY25hbWU9ImF6dXJlX2Z1bmN0aW9ucy5zdmciIHg9IjBweCIgeT0iMHB4IiB2aWV3Qm94PSIwIDAgNTcuMzE0MDI4IDUyLjgyIiB4bWw6c3BhY2U9InByZXNlcnZlIiB3aWR0aD0iNTcuMzE0MDMiIGhlaWdodD0iNTIuODIiPjxtZXRhZGF0YSBpZD0ibWV0YWRhdGEyMDc1MSI+PHJkZjpSREY+PGNjOldvcmsgcmRmOmFib3V0PSIiPjxkYzpmb3JtYXQ+aW1hZ2Uvc3ZnK3htbDwvZGM6Zm9ybWF0PjxkYzp0eXBlIHJkZjpyZXNvdXJjZT0iaHR0cDovL3B1cmwub3JnL2RjL2RjbWl0eXBlL1N0aWxsSW1hZ2UiLz48ZGM6dGl0bGUvPjwvY2M6V29yaz48L3JkZjpSREY+PC9tZXRhZGF0YT48ZGVmcyBpZD0iZGVmczIwNzQ5Ij4mI3hhOwkmI3hhOyYjeGE7CSYjeGE7JiN4YTsJJiN4YTsmI3hhOwkmI3hhOzwvZGVmcz4mI3hhOzxmaWx0ZXIgaWQ9ImZpbHRlcl8yIj4mI3hhOwk8ZmVHYXVzc2lhbkJsdXIgaWQ9ImZlR2F1c3NpYW5CbHVyMTU2ODA5IiBzdGREZXZpYXRpb249IjIiLz4mI3hhOzwvZmlsdGVyPiYjeGE7PHNvZGlwb2RpOm5hbWVkdmlldyBib3JkZXJjb2xvcj0iIzY2NjY2NiIgYm9yZGVyb3BhY2l0eT0iMSIgZml0LW1hcmdpbi1ib3R0b209IjAiIGZpdC1tYXJnaW4tbGVmdD0iMCIgZml0LW1hcmdpbi1yaWdodD0iMCIgZml0LW1hcmdpbi10b3A9IjAiIGdyaWR0b2xlcmFuY2U9IjEwIiBndWlkZXRvbGVyYW5jZT0iMTAiIGlkPSJuYW1lZHZpZXcxNTY4NTQiIGlua3NjYXBlOmN1cnJlbnQtbGF5ZXI9InN2ZzE1Njg1MiIgaW5rc2NhcGU6Y3g9Ii00NC42NTA3MTUiIGlua3NjYXBlOmN5PSIyMy4yNzUwMDEiIGlua3NjYXBlOnBhZ2VvcGFjaXR5PSIwIiBpbmtzY2FwZTpwYWdlc2hhZG93PSIyIiBpbmtzY2FwZTp3aW5kb3ctaGVpZ2h0PSIxMDE3IiBpbmtzY2FwZTp3aW5kb3ctbWF4aW1pemVkPSIxIiBpbmtzY2FwZTp3aW5kb3ctd2lkdGg9IjE5MjAiIGlua3NjYXBlOndpbmRvdy14PSItOCIgaW5rc2NhcGU6d2luZG93LXk9Ii04IiBpbmtzY2FwZTp6b29tPSI2LjM5MTY4MjgiIG9iamVjdHRvbGVyYW5jZT0iMTAiIHBhZ2Vjb2xvcj0iI2ZmZmZmZiIgc2hvd2dyaWQ9ImZhbHNlIj4mI3hhOwk8L3NvZGlwb2RpOm5hbWVkdmlldz4mI3hhOyYjeGE7PHBhdGggaWQ9InBhdGgxNTY4MjIiIGlua3NjYXBlOmNvbm5lY3Rvci1jdXJ2YXR1cmU9IjAiIHN0eWxlPSJmaWxsOiMzZjU3NjUiIGQ9Im0gNTYuOTQyMDE0LDI2Ljc3IGMgMC41NCwtMC41MyAwLjQ1LC0xLjUyIDAsLTIuMDYgbCAtMi43NywtMi43NyAtMTIuMzYsLTEyIGMgLTAuNTMsLTAuNTMgLTEuMzQsLTAuNTMgLTEuOTYsMCAtMC41NCwwLjU0IC0wLjcyLDEuNTMgMCwyLjA2IGwgMTIuOTcsMTIuNzEgYyAwLjU0LDAuNTQgMC41NCwxLjUzIDAsMi4wNiBsIC0xMy4yNCwxMy4xNiBjIC0wLjU0LDAuNTQgLTAuNTQsMS41MiAwLDIuMDYgMC41MywwLjU0IDEuNTIsMC40NSAxLjk3LDAgbCAxMi4yNiwtMTIuMTcgYyAwLDAgMCwwIDAuMDksLTAuMDkgeiIvPiYjeGE7JiN4YTs8cGF0aCBpZD0icGF0aDE1NjgzMCIgaW5rc2NhcGU6Y29ubmVjdG9yLWN1cnZhdHVyZT0iMCIgc3R5bGU9ImZpbGw6IzNmNTc2NSIgZD0ibSAwLjM3MjAxMzksMjYuNzcgYyAtMC41NCwtMC41MyAtMC40NSwtMS41MiAwLC0yLjA2IGwgMi43NywtMi43NyAxMi4zNTAwMDAxLC0xMiBjIDAuNTQsLTAuNTMgMS4zNSwtMC41MyAxLjk3LDAgMC41NCwwLjU0IDAuNzIsMS41MyAwLDIuMDYgTCA0Ljc1MjAxMzksMjQuNzEgYyAtMC41MywwLjU0IC0wLjUzLDEuNTMgMCwyLjA2IEwgMTcuNzMyMDE0LDM5LjkzIGMgMC41NCwwLjU0IDAuNTQsMS41MiAwLDIuMDYgLTAuNTMsMC41NCAtMS41MiwwLjQ1IC0xLjk3LDAgTCAzLjIzMjAxMzksMzAgYyAwLDAgMCwwIC0wLjA5LC0wLjA5IHoiLz4mI3hhOyYjeGE7PHBhdGggaWQ9InBhdGgxNTY4MzgiIGlua3NjYXBlOmNvbm5lY3Rvci1jdXJ2YXR1cmU9IjAiIHN0eWxlPSJmaWxsOiMzZjU3NjUiIGQ9Im0gNDIuNjIyMDE0LDAgaCAtMTcuNDUgbCAtOS40LDI2LjUgMTEuNDYsMC4wOSAtOC45NSwyNi4yMyAyNC43LC0zNSBoIC0xMS45OSB6Ii8+JiN4YTsmI3hhOzxwYXRoIGlkPSJwYXRoMTU2ODQ2IiBpbmtzY2FwZTpjb25uZWN0b3ItY3VydmF0dXJlPSIwIiBzdHlsZT0iZmlsbDojMGMwYzBjO2ZpbGwtb3BhY2l0eTowLjMiIGQ9Ik0gMzAuOTgyMDE0LDE3LjgyIDQyLjYyMjAxNCwwIGggLTkuMTMgbCAtOS42NywyMi4wMiAxMS40NiwwLjA5IC0xNy4wMSwzMC43MSAyNC43MSwtMzUgeiIvPiYjeGE7PC9zdmc+;" parent="1" vertex="1">
          <mxGeometry x="190" y="19" width="57" height="53" as="geometry" />
        </mxCell>
        <mxCell id="9wjv7jFX8xUqSjr2dzsi-21" value="" style="edgeStyle=none;orthogonalLoop=1;jettySize=auto;html=1;rounded=0;entryX=1;entryY=0;entryDx=0;entryDy=0;exitX=0.5;exitY=1;exitDx=0;exitDy=0;" parent="1" source="9wjv7jFX8xUqSjr2dzsi-23" target="9wjv7jFX8xUqSjr2dzsi-3" edge="1">
          <mxGeometry width="80" relative="1" as="geometry">
            <mxPoint x="484" y="143" as="sourcePoint" />
            <mxPoint x="238" y="229" as="targetPoint" />
            <Array as="points" />
          </mxGeometry>
        </mxCell>
        <mxCell id="9wjv7jFX8xUqSjr2dzsi-22" value="&lt;div&gt;Rapport betongelement&lt;/div&gt;" style="edgeLabel;html=1;align=center;verticalAlign=middle;resizable=0;points=[];" parent="9wjv7jFX8xUqSjr2dzsi-21" vertex="1" connectable="0">
          <mxGeometry x="0.006" y="-1" relative="1" as="geometry">
            <mxPoint as="offset" />
          </mxGeometry>
        </mxCell>
        <mxCell id="9wjv7jFX8xUqSjr2dzsi-23" value="" style="shape=image;verticalLabelPosition=bottom;labelBackgroundColor=#ffffff;verticalAlign=top;aspect=fixed;imageAspect=0;image=data:image/svg+xml,PHN2ZyB4bWxuczpkYz0iaHR0cDovL3B1cmwub3JnL2RjL2VsZW1lbnRzLzEuMS8iIHhtbG5zOmNjPSJodHRwOi8vY3JlYXRpdmVjb21tb25zLm9yZy9ucyMiIHhtbG5zOnJkZj0iaHR0cDovL3d3dy53My5vcmcvMTk5OS8wMi8yMi1yZGYtc3ludGF4LW5zIyIgeG1sbnM6c3ZnPSJodHRwOi8vd3d3LnczLm9yZy8yMDAwL3N2ZyIgeG1sbnM9Imh0dHA6Ly93d3cudzMub3JnLzIwMDAvc3ZnIiB4bWxuczpzb2RpcG9kaT0iaHR0cDovL3NvZGlwb2RpLnNvdXJjZWZvcmdlLm5ldC9EVEQvc29kaXBvZGktMC5kdGQiIHhtbG5zOmlua3NjYXBlPSJodHRwOi8vd3d3Lmlua3NjYXBlLm9yZy9uYW1lc3BhY2VzL2lua3NjYXBlIiB2ZXJzaW9uPSIxLjEiIGlkPSJzdmcxNTY4NTIiIGlua3NjYXBlOnZlcnNpb249IjAuOTIuMyAoMjQwNTU0NiwgMjAxOC0wMy0xMSkiIHNvZGlwb2RpOmRvY25hbWU9ImF6dXJlX2Z1bmN0aW9ucy5zdmciIHg9IjBweCIgeT0iMHB4IiB2aWV3Qm94PSIwIDAgNTcuMzE0MDI4IDUyLjgyIiB4bWw6c3BhY2U9InByZXNlcnZlIiB3aWR0aD0iNTcuMzE0MDMiIGhlaWdodD0iNTIuODIiPjxtZXRhZGF0YSBpZD0ibWV0YWRhdGEyMDc1MSI+PHJkZjpSREY+PGNjOldvcmsgcmRmOmFib3V0PSIiPjxkYzpmb3JtYXQ+aW1hZ2Uvc3ZnK3htbDwvZGM6Zm9ybWF0PjxkYzp0eXBlIHJkZjpyZXNvdXJjZT0iaHR0cDovL3B1cmwub3JnL2RjL2RjbWl0eXBlL1N0aWxsSW1hZ2UiLz48ZGM6dGl0bGUvPjwvY2M6V29yaz48L3JkZjpSREY+PC9tZXRhZGF0YT48ZGVmcyBpZD0iZGVmczIwNzQ5Ij4mI3hhOwkmI3hhOyYjeGE7CSYjeGE7JiN4YTsJJiN4YTsmI3hhOwkmI3hhOzwvZGVmcz4mI3hhOzxmaWx0ZXIgaWQ9ImZpbHRlcl8yIj4mI3hhOwk8ZmVHYXVzc2lhbkJsdXIgaWQ9ImZlR2F1c3NpYW5CbHVyMTU2ODA5IiBzdGREZXZpYXRpb249IjIiLz4mI3hhOzwvZmlsdGVyPiYjeGE7PHNvZGlwb2RpOm5hbWVkdmlldyBib3JkZXJjb2xvcj0iIzY2NjY2NiIgYm9yZGVyb3BhY2l0eT0iMSIgZml0LW1hcmdpbi1ib3R0b209IjAiIGZpdC1tYXJnaW4tbGVmdD0iMCIgZml0LW1hcmdpbi1yaWdodD0iMCIgZml0LW1hcmdpbi10b3A9IjAiIGdyaWR0b2xlcmFuY2U9IjEwIiBndWlkZXRvbGVyYW5jZT0iMTAiIGlkPSJuYW1lZHZpZXcxNTY4NTQiIGlua3NjYXBlOmN1cnJlbnQtbGF5ZXI9InN2ZzE1Njg1MiIgaW5rc2NhcGU6Y3g9Ii00NC42NTA3MTUiIGlua3NjYXBlOmN5PSIyMy4yNzUwMDEiIGlua3NjYXBlOnBhZ2VvcGFjaXR5PSIwIiBpbmtzY2FwZTpwYWdlc2hhZG93PSIyIiBpbmtzY2FwZTp3aW5kb3ctaGVpZ2h0PSIxMDE3IiBpbmtzY2FwZTp3aW5kb3ctbWF4aW1pemVkPSIxIiBpbmtzY2FwZTp3aW5kb3ctd2lkdGg9IjE5MjAiIGlua3NjYXBlOndpbmRvdy14PSItOCIgaW5rc2NhcGU6d2luZG93LXk9Ii04IiBpbmtzY2FwZTp6b29tPSI2LjM5MTY4MjgiIG9iamVjdHRvbGVyYW5jZT0iMTAiIHBhZ2Vjb2xvcj0iI2ZmZmZmZiIgc2hvd2dyaWQ9ImZhbHNlIj4mI3hhOwk8L3NvZGlwb2RpOm5hbWVkdmlldz4mI3hhOyYjeGE7PHBhdGggaWQ9InBhdGgxNTY4MjIiIGlua3NjYXBlOmNvbm5lY3Rvci1jdXJ2YXR1cmU9IjAiIHN0eWxlPSJmaWxsOiMzZjU3NjUiIGQ9Im0gNTYuOTQyMDE0LDI2Ljc3IGMgMC41NCwtMC41MyAwLjQ1LC0xLjUyIDAsLTIuMDYgbCAtMi43NywtMi43NyAtMTIuMzYsLTEyIGMgLTAuNTMsLTAuNTMgLTEuMzQsLTAuNTMgLTEuOTYsMCAtMC41NCwwLjU0IC0wLjcyLDEuNTMgMCwyLjA2IGwgMTIuOTcsMTIuNzEgYyAwLjU0LDAuNTQgMC41NCwxLjUzIDAsMi4wNiBsIC0xMy4yNCwxMy4xNiBjIC0wLjU0LDAuNTQgLTAuNTQsMS41MiAwLDIuMDYgMC41MywwLjU0IDEuNTIsMC40NSAxLjk3LDAgbCAxMi4yNiwtMTIuMTcgYyAwLDAgMCwwIDAuMDksLTAuMDkgeiIvPiYjeGE7JiN4YTs8cGF0aCBpZD0icGF0aDE1NjgzMCIgaW5rc2NhcGU6Y29ubmVjdG9yLWN1cnZhdHVyZT0iMCIgc3R5bGU9ImZpbGw6IzNmNTc2NSIgZD0ibSAwLjM3MjAxMzksMjYuNzcgYyAtMC41NCwtMC41MyAtMC40NSwtMS41MiAwLC0yLjA2IGwgMi43NywtMi43NyAxMi4zNTAwMDAxLC0xMiBjIDAuNTQsLTAuNTMgMS4zNSwtMC41MyAxLjk3LDAgMC41NCwwLjU0IDAuNzIsMS41MyAwLDIuMDYgTCA0Ljc1MjAxMzksMjQuNzEgYyAtMC41MywwLjU0IC0wLjUzLDEuNTMgMCwyLjA2IEwgMTcuNzMyMDE0LDM5LjkzIGMgMC41NCwwLjU0IDAuNTQsMS41MiAwLDIuMDYgLTAuNTMsMC41NCAtMS41MiwwLjQ1IC0xLjk3LDAgTCAzLjIzMjAxMzksMzAgYyAwLDAgMCwwIC0wLjA5LC0wLjA5IHoiLz4mI3hhOyYjeGE7PHBhdGggaWQ9InBhdGgxNTY4MzgiIGlua3NjYXBlOmNvbm5lY3Rvci1jdXJ2YXR1cmU9IjAiIHN0eWxlPSJmaWxsOiMzZjU3NjUiIGQ9Im0gNDIuNjIyMDE0LDAgaCAtMTcuNDUgbCAtOS40LDI2LjUgMTEuNDYsMC4wOSAtOC45NSwyNi4yMyAyNC43LC0zNSBoIC0xMS45OSB6Ii8+JiN4YTsmI3hhOzxwYXRoIGlkPSJwYXRoMTU2ODQ2IiBpbmtzY2FwZTpjb25uZWN0b3ItY3VydmF0dXJlPSIwIiBzdHlsZT0iZmlsbDojMGMwYzBjO2ZpbGwtb3BhY2l0eTowLjMiIGQ9Ik0gMzAuOTgyMDE0LDE3LjgyIDQyLjYyMjAxNCwwIGggLTkuMTMgbCAtOS42NywyMi4wMiAxMS40NiwwLjA5IC0xNy4wMSwzMC43MSAyNC43MSwtMzUgeiIvPiYjeGE7PC9zdmc+;" parent="1" vertex="1">
          <mxGeometry x="339" y="57" width="57" height="53" as="geometry" />
        </mxCell>
        <mxCell id="9wjv7jFX8xUqSjr2dzsi-24" value="" style="edgeStyle=none;orthogonalLoop=1;jettySize=auto;html=1;rounded=0;entryX=1;entryY=0.25;entryDx=0;entryDy=0;exitX=0;exitY=0.75;exitDx=0;exitDy=0;" parent="1" source="9wjv7jFX8xUqSjr2dzsi-26" target="9wjv7jFX8xUqSjr2dzsi-1" edge="1">
          <mxGeometry width="80" relative="1" as="geometry">
            <mxPoint x="529" y="245" as="sourcePoint" />
            <mxPoint x="298" y="301" as="targetPoint" />
            <Array as="points" />
          </mxGeometry>
        </mxCell>
        <mxCell id="9wjv7jFX8xUqSjr2dzsi-25" value="&lt;div&gt;lasteliste&lt;/div&gt;" style="edgeLabel;html=1;align=center;verticalAlign=middle;resizable=0;points=[];" parent="9wjv7jFX8xUqSjr2dzsi-24" vertex="1" connectable="0">
          <mxGeometry x="0.006" y="-1" relative="1" as="geometry">
            <mxPoint as="offset" />
          </mxGeometry>
        </mxCell>
        <mxCell id="9wjv7jFX8xUqSjr2dzsi-26" value="" style="shape=image;verticalLabelPosition=bottom;labelBackgroundColor=#ffffff;verticalAlign=top;aspect=fixed;imageAspect=0;image=data:image/svg+xml,PHN2ZyB4bWxuczpkYz0iaHR0cDovL3B1cmwub3JnL2RjL2VsZW1lbnRzLzEuMS8iIHhtbG5zOmNjPSJodHRwOi8vY3JlYXRpdmVjb21tb25zLm9yZy9ucyMiIHhtbG5zOnJkZj0iaHR0cDovL3d3dy53My5vcmcvMTk5OS8wMi8yMi1yZGYtc3ludGF4LW5zIyIgeG1sbnM6c3ZnPSJodHRwOi8vd3d3LnczLm9yZy8yMDAwL3N2ZyIgeG1sbnM9Imh0dHA6Ly93d3cudzMub3JnLzIwMDAvc3ZnIiB4bWxuczpzb2RpcG9kaT0iaHR0cDovL3NvZGlwb2RpLnNvdXJjZWZvcmdlLm5ldC9EVEQvc29kaXBvZGktMC5kdGQiIHhtbG5zOmlua3NjYXBlPSJodHRwOi8vd3d3Lmlua3NjYXBlLm9yZy9uYW1lc3BhY2VzL2lua3NjYXBlIiB2ZXJzaW9uPSIxLjEiIGlkPSJzdmcxNTY4NTIiIGlua3NjYXBlOnZlcnNpb249IjAuOTIuMyAoMjQwNTU0NiwgMjAxOC0wMy0xMSkiIHNvZGlwb2RpOmRvY25hbWU9ImF6dXJlX2Z1bmN0aW9ucy5zdmciIHg9IjBweCIgeT0iMHB4IiB2aWV3Qm94PSIwIDAgNTcuMzE0MDI4IDUyLjgyIiB4bWw6c3BhY2U9InByZXNlcnZlIiB3aWR0aD0iNTcuMzE0MDMiIGhlaWdodD0iNTIuODIiPjxtZXRhZGF0YSBpZD0ibWV0YWRhdGEyMDc1MSI+PHJkZjpSREY+PGNjOldvcmsgcmRmOmFib3V0PSIiPjxkYzpmb3JtYXQ+aW1hZ2Uvc3ZnK3htbDwvZGM6Zm9ybWF0PjxkYzp0eXBlIHJkZjpyZXNvdXJjZT0iaHR0cDovL3B1cmwub3JnL2RjL2RjbWl0eXBlL1N0aWxsSW1hZ2UiLz48ZGM6dGl0bGUvPjwvY2M6V29yaz48L3JkZjpSREY+PC9tZXRhZGF0YT48ZGVmcyBpZD0iZGVmczIwNzQ5Ij4mI3hhOwkmI3hhOyYjeGE7CSYjeGE7JiN4YTsJJiN4YTsmI3hhOwkmI3hhOzwvZGVmcz4mI3hhOzxmaWx0ZXIgaWQ9ImZpbHRlcl8yIj4mI3hhOwk8ZmVHYXVzc2lhbkJsdXIgaWQ9ImZlR2F1c3NpYW5CbHVyMTU2ODA5IiBzdGREZXZpYXRpb249IjIiLz4mI3hhOzwvZmlsdGVyPiYjeGE7PHNvZGlwb2RpOm5hbWVkdmlldyBib3JkZXJjb2xvcj0iIzY2NjY2NiIgYm9yZGVyb3BhY2l0eT0iMSIgZml0LW1hcmdpbi1ib3R0b209IjAiIGZpdC1tYXJnaW4tbGVmdD0iMCIgZml0LW1hcmdpbi1yaWdodD0iMCIgZml0LW1hcmdpbi10b3A9IjAiIGdyaWR0b2xlcmFuY2U9IjEwIiBndWlkZXRvbGVyYW5jZT0iMTAiIGlkPSJuYW1lZHZpZXcxNTY4NTQiIGlua3NjYXBlOmN1cnJlbnQtbGF5ZXI9InN2ZzE1Njg1MiIgaW5rc2NhcGU6Y3g9Ii00NC42NTA3MTUiIGlua3NjYXBlOmN5PSIyMy4yNzUwMDEiIGlua3NjYXBlOnBhZ2VvcGFjaXR5PSIwIiBpbmtzY2FwZTpwYWdlc2hhZG93PSIyIiBpbmtzY2FwZTp3aW5kb3ctaGVpZ2h0PSIxMDE3IiBpbmtzY2FwZTp3aW5kb3ctbWF4aW1pemVkPSIxIiBpbmtzY2FwZTp3aW5kb3ctd2lkdGg9IjE5MjAiIGlua3NjYXBlOndpbmRvdy14PSItOCIgaW5rc2NhcGU6d2luZG93LXk9Ii04IiBpbmtzY2FwZTp6b29tPSI2LjM5MTY4MjgiIG9iamVjdHRvbGVyYW5jZT0iMTAiIHBhZ2Vjb2xvcj0iI2ZmZmZmZiIgc2hvd2dyaWQ9ImZhbHNlIj4mI3hhOwk8L3NvZGlwb2RpOm5hbWVkdmlldz4mI3hhOyYjeGE7PHBhdGggaWQ9InBhdGgxNTY4MjIiIGlua3NjYXBlOmNvbm5lY3Rvci1jdXJ2YXR1cmU9IjAiIHN0eWxlPSJmaWxsOiMzZjU3NjUiIGQ9Im0gNTYuOTQyMDE0LDI2Ljc3IGMgMC41NCwtMC41MyAwLjQ1LC0xLjUyIDAsLTIuMDYgbCAtMi43NywtMi43NyAtMTIuMzYsLTEyIGMgLTAuNTMsLTAuNTMgLTEuMzQsLTAuNTMgLTEuOTYsMCAtMC41NCwwLjU0IC0wLjcyLDEuNTMgMCwyLjA2IGwgMTIuOTcsMTIuNzEgYyAwLjU0LDAuNTQgMC41NCwxLjUzIDAsMi4wNiBsIC0xMy4yNCwxMy4xNiBjIC0wLjU0LDAuNTQgLTAuNTQsMS41MiAwLDIuMDYgMC41MywwLjU0IDEuNTIsMC40NSAxLjk3LDAgbCAxMi4yNiwtMTIuMTcgYyAwLDAgMCwwIDAuMDksLTAuMDkgeiIvPiYjeGE7JiN4YTs8cGF0aCBpZD0icGF0aDE1NjgzMCIgaW5rc2NhcGU6Y29ubmVjdG9yLWN1cnZhdHVyZT0iMCIgc3R5bGU9ImZpbGw6IzNmNTc2NSIgZD0ibSAwLjM3MjAxMzksMjYuNzcgYyAtMC41NCwtMC41MyAtMC40NSwtMS41MiAwLC0yLjA2IGwgMi43NywtMi43NyAxMi4zNTAwMDAxLC0xMiBjIDAuNTQsLTAuNTMgMS4zNSwtMC41MyAxLjk3LDAgMC41NCwwLjU0IDAuNzIsMS41MyAwLDIuMDYgTCA0Ljc1MjAxMzksMjQuNzEgYyAtMC41MywwLjU0IC0wLjUzLDEuNTMgMCwyLjA2IEwgMTcuNzMyMDE0LDM5LjkzIGMgMC41NCwwLjU0IDAuNTQsMS41MiAwLDIuMDYgLTAuNTMsMC41NCAtMS41MiwwLjQ1IC0xLjk3LDAgTCAzLjIzMjAxMzksMzAgYyAwLDAgMCwwIC0wLjA5LC0wLjA5IHoiLz4mI3hhOyYjeGE7PHBhdGggaWQ9InBhdGgxNTY4MzgiIGlua3NjYXBlOmNvbm5lY3Rvci1jdXJ2YXR1cmU9IjAiIHN0eWxlPSJmaWxsOiMzZjU3NjUiIGQ9Im0gNDIuNjIyMDE0LDAgaCAtMTcuNDUgbCAtOS40LDI2LjUgMTEuNDYsMC4wOSAtOC45NSwyNi4yMyAyNC43LC0zNSBoIC0xMS45OSB6Ii8+JiN4YTsmI3hhOzxwYXRoIGlkPSJwYXRoMTU2ODQ2IiBpbmtzY2FwZTpjb25uZWN0b3ItY3VydmF0dXJlPSIwIiBzdHlsZT0iZmlsbDojMGMwYzBjO2ZpbGwtb3BhY2l0eTowLjMiIGQ9Ik0gMzAuOTgyMDE0LDE3LjgyIDQyLjYyMjAxNCwwIGggLTkuMTMgbCAtOS42NywyMi4wMiAxMS40NiwwLjA5IC0xNy4wMSwzMC43MSAyNC43MSwtMzUgeiIvPiYjeGE7PC9zdmc+;" parent="1" vertex="1">
          <mxGeometry x="385" y="131" width="57" height="53" as="geometry" />
        </mxCell>
        <mxCell id="9wjv7jFX8xUqSjr2dzsi-27" value="" style="edgeStyle=none;orthogonalLoop=1;jettySize=auto;html=1;rounded=0;entryX=1;entryY=0.5;entryDx=0;entryDy=0;exitX=0;exitY=0.75;exitDx=0;exitDy=0;" parent="1" source="9wjv7jFX8xUqSjr2dzsi-29" target="9wjv7jFX8xUqSjr2dzsi-1" edge="1">
          <mxGeometry width="80" relative="1" as="geometry">
            <mxPoint x="529" y="324" as="sourcePoint" />
            <mxPoint x="247" y="319" as="targetPoint" />
            <Array as="points" />
          </mxGeometry>
        </mxCell>
        <mxCell id="9wjv7jFX8xUqSjr2dzsi-28" value="&lt;div&gt;uploadfile&lt;/div&gt;" style="edgeLabel;html=1;align=center;verticalAlign=middle;resizable=0;points=[];" parent="9wjv7jFX8xUqSjr2dzsi-27" vertex="1" connectable="0">
          <mxGeometry x="0.006" y="-1" relative="1" as="geometry">
            <mxPoint as="offset" />
          </mxGeometry>
        </mxCell>
        <mxCell id="9wjv7jFX8xUqSjr2dzsi-29" value="" style="shape=image;verticalLabelPosition=bottom;labelBackgroundColor=#ffffff;verticalAlign=top;aspect=fixed;imageAspect=0;image=data:image/svg+xml,PHN2ZyB4bWxuczpkYz0iaHR0cDovL3B1cmwub3JnL2RjL2VsZW1lbnRzLzEuMS8iIHhtbG5zOmNjPSJodHRwOi8vY3JlYXRpdmVjb21tb25zLm9yZy9ucyMiIHhtbG5zOnJkZj0iaHR0cDovL3d3dy53My5vcmcvMTk5OS8wMi8yMi1yZGYtc3ludGF4LW5zIyIgeG1sbnM6c3ZnPSJodHRwOi8vd3d3LnczLm9yZy8yMDAwL3N2ZyIgeG1sbnM9Imh0dHA6Ly93d3cudzMub3JnLzIwMDAvc3ZnIiB4bWxuczpzb2RpcG9kaT0iaHR0cDovL3NvZGlwb2RpLnNvdXJjZWZvcmdlLm5ldC9EVEQvc29kaXBvZGktMC5kdGQiIHhtbG5zOmlua3NjYXBlPSJodHRwOi8vd3d3Lmlua3NjYXBlLm9yZy9uYW1lc3BhY2VzL2lua3NjYXBlIiB2ZXJzaW9uPSIxLjEiIGlkPSJzdmcxNTY4NTIiIGlua3NjYXBlOnZlcnNpb249IjAuOTIuMyAoMjQwNTU0NiwgMjAxOC0wMy0xMSkiIHNvZGlwb2RpOmRvY25hbWU9ImF6dXJlX2Z1bmN0aW9ucy5zdmciIHg9IjBweCIgeT0iMHB4IiB2aWV3Qm94PSIwIDAgNTcuMzE0MDI4IDUyLjgyIiB4bWw6c3BhY2U9InByZXNlcnZlIiB3aWR0aD0iNTcuMzE0MDMiIGhlaWdodD0iNTIuODIiPjxtZXRhZGF0YSBpZD0ibWV0YWRhdGEyMDc1MSI+PHJkZjpSREY+PGNjOldvcmsgcmRmOmFib3V0PSIiPjxkYzpmb3JtYXQ+aW1hZ2Uvc3ZnK3htbDwvZGM6Zm9ybWF0PjxkYzp0eXBlIHJkZjpyZXNvdXJjZT0iaHR0cDovL3B1cmwub3JnL2RjL2RjbWl0eXBlL1N0aWxsSW1hZ2UiLz48ZGM6dGl0bGUvPjwvY2M6V29yaz48L3JkZjpSREY+PC9tZXRhZGF0YT48ZGVmcyBpZD0iZGVmczIwNzQ5Ij4mI3hhOwkmI3hhOyYjeGE7CSYjeGE7JiN4YTsJJiN4YTsmI3hhOwkmI3hhOzwvZGVmcz4mI3hhOzxmaWx0ZXIgaWQ9ImZpbHRlcl8yIj4mI3hhOwk8ZmVHYXVzc2lhbkJsdXIgaWQ9ImZlR2F1c3NpYW5CbHVyMTU2ODA5IiBzdGREZXZpYXRpb249IjIiLz4mI3hhOzwvZmlsdGVyPiYjeGE7PHNvZGlwb2RpOm5hbWVkdmlldyBib3JkZXJjb2xvcj0iIzY2NjY2NiIgYm9yZGVyb3BhY2l0eT0iMSIgZml0LW1hcmdpbi1ib3R0b209IjAiIGZpdC1tYXJnaW4tbGVmdD0iMCIgZml0LW1hcmdpbi1yaWdodD0iMCIgZml0LW1hcmdpbi10b3A9IjAiIGdyaWR0b2xlcmFuY2U9IjEwIiBndWlkZXRvbGVyYW5jZT0iMTAiIGlkPSJuYW1lZHZpZXcxNTY4NTQiIGlua3NjYXBlOmN1cnJlbnQtbGF5ZXI9InN2ZzE1Njg1MiIgaW5rc2NhcGU6Y3g9Ii00NC42NTA3MTUiIGlua3NjYXBlOmN5PSIyMy4yNzUwMDEiIGlua3NjYXBlOnBhZ2VvcGFjaXR5PSIwIiBpbmtzY2FwZTpwYWdlc2hhZG93PSIyIiBpbmtzY2FwZTp3aW5kb3ctaGVpZ2h0PSIxMDE3IiBpbmtzY2FwZTp3aW5kb3ctbWF4aW1pemVkPSIxIiBpbmtzY2FwZTp3aW5kb3ctd2lkdGg9IjE5MjAiIGlua3NjYXBlOndpbmRvdy14PSItOCIgaW5rc2NhcGU6d2luZG93LXk9Ii04IiBpbmtzY2FwZTp6b29tPSI2LjM5MTY4MjgiIG9iamVjdHRvbGVyYW5jZT0iMTAiIHBhZ2Vjb2xvcj0iI2ZmZmZmZiIgc2hvd2dyaWQ9ImZhbHNlIj4mI3hhOwk8L3NvZGlwb2RpOm5hbWVkdmlldz4mI3hhOyYjeGE7PHBhdGggaWQ9InBhdGgxNTY4MjIiIGlua3NjYXBlOmNvbm5lY3Rvci1jdXJ2YXR1cmU9IjAiIHN0eWxlPSJmaWxsOiMzZjU3NjUiIGQ9Im0gNTYuOTQyMDE0LDI2Ljc3IGMgMC41NCwtMC41MyAwLjQ1LC0xLjUyIDAsLTIuMDYgbCAtMi43NywtMi43NyAtMTIuMzYsLTEyIGMgLTAuNTMsLTAuNTMgLTEuMzQsLTAuNTMgLTEuOTYsMCAtMC41NCwwLjU0IC0wLjcyLDEuNTMgMCwyLjA2IGwgMTIuOTcsMTIuNzEgYyAwLjU0LDAuNTQgMC41NCwxLjUzIDAsMi4wNiBsIC0xMy4yNCwxMy4xNiBjIC0wLjU0LDAuNTQgLTAuNTQsMS41MiAwLDIuMDYgMC41MywwLjU0IDEuNTIsMC40NSAxLjk3LDAgbCAxMi4yNiwtMTIuMTcgYyAwLDAgMCwwIDAuMDksLTAuMDkgeiIvPiYjeGE7JiN4YTs8cGF0aCBpZD0icGF0aDE1NjgzMCIgaW5rc2NhcGU6Y29ubmVjdG9yLWN1cnZhdHVyZT0iMCIgc3R5bGU9ImZpbGw6IzNmNTc2NSIgZD0ibSAwLjM3MjAxMzksMjYuNzcgYyAtMC41NCwtMC41MyAtMC40NSwtMS41MiAwLC0yLjA2IGwgMi43NywtMi43NyAxMi4zNTAwMDAxLC0xMiBjIDAuNTQsLTAuNTMgMS4zNSwtMC41MyAxLjk3LDAgMC41NCwwLjU0IDAuNzIsMS41MyAwLDIuMDYgTCA0Ljc1MjAxMzksMjQuNzEgYyAtMC41MywwLjU0IC0wLjUzLDEuNTMgMCwyLjA2IEwgMTcuNzMyMDE0LDM5LjkzIGMgMC41NCwwLjU0IDAuNTQsMS41MiAwLDIuMDYgLTAuNTMsMC41NCAtMS41MiwwLjQ1IC0xLjk3LDAgTCAzLjIzMjAxMzksMzAgYyAwLDAgMCwwIC0wLjA5LC0wLjA5IHoiLz4mI3hhOyYjeGE7PHBhdGggaWQ9InBhdGgxNTY4MzgiIGlua3NjYXBlOmNvbm5lY3Rvci1jdXJ2YXR1cmU9IjAiIHN0eWxlPSJmaWxsOiMzZjU3NjUiIGQ9Im0gNDIuNjIyMDE0LDAgaCAtMTcuNDUgbCAtOS40LDI2LjUgMTEuNDYsMC4wOSAtOC45NSwyNi4yMyAyNC43LC0zNSBoIC0xMS45OSB6Ii8+JiN4YTsmI3hhOzxwYXRoIGlkPSJwYXRoMTU2ODQ2IiBpbmtzY2FwZTpjb25uZWN0b3ItY3VydmF0dXJlPSIwIiBzdHlsZT0iZmlsbDojMGMwYzBjO2ZpbGwtb3BhY2l0eTowLjMiIGQ9Ik0gMzAuOTgyMDE0LDE3LjgyIDQyLjYyMjAxNCwwIGggLTkuMTMgbCAtOS42NywyMi4wMiAxMS40NiwwLjA5IC0xNy4wMSwzMC43MSAyNC43MSwtMzUgeiIvPiYjeGE7PC9zdmc+;" parent="1" vertex="1">
          <mxGeometry x="385" y="210" width="57" height="53" as="geometry" />
        </mxCell>
        <mxCell id="9wjv7jFX8xUqSjr2dzsi-30" value="" style="edgeStyle=none;orthogonalLoop=1;jettySize=auto;html=1;rounded=0;entryX=0;entryY=0.25;entryDx=0;entryDy=0;exitX=1;exitY=0.75;exitDx=0;exitDy=0;" parent="1" source="9wjv7jFX8xUqSjr2dzsi-32" target="9wjv7jFX8xUqSjr2dzsi-1" edge="1">
          <mxGeometry width="80" relative="1" as="geometry">
            <mxPoint x="137" y="310" as="sourcePoint" />
            <mxPoint x="176" y="213.5" as="targetPoint" />
            <Array as="points" />
          </mxGeometry>
        </mxCell>
        <mxCell id="9wjv7jFX8xUqSjr2dzsi-31" value="&lt;div&gt;Tripletext-nytt prosjekt&lt;/div&gt;" style="edgeLabel;html=1;align=center;verticalAlign=middle;resizable=0;points=[];" parent="9wjv7jFX8xUqSjr2dzsi-30" vertex="1" connectable="0">
          <mxGeometry x="0.006" y="-1" relative="1" as="geometry">
            <mxPoint as="offset" />
          </mxGeometry>
        </mxCell>
        <mxCell id="9wjv7jFX8xUqSjr2dzsi-32" value="" style="shape=image;verticalLabelPosition=bottom;labelBackgroundColor=#ffffff;verticalAlign=top;aspect=fixed;imageAspect=0;image=data:image/svg+xml,PHN2ZyB4bWxuczpkYz0iaHR0cDovL3B1cmwub3JnL2RjL2VsZW1lbnRzLzEuMS8iIHhtbG5zOmNjPSJodHRwOi8vY3JlYXRpdmVjb21tb25zLm9yZy9ucyMiIHhtbG5zOnJkZj0iaHR0cDovL3d3dy53My5vcmcvMTk5OS8wMi8yMi1yZGYtc3ludGF4LW5zIyIgeG1sbnM6c3ZnPSJodHRwOi8vd3d3LnczLm9yZy8yMDAwL3N2ZyIgeG1sbnM9Imh0dHA6Ly93d3cudzMub3JnLzIwMDAvc3ZnIiB4bWxuczpzb2RpcG9kaT0iaHR0cDovL3NvZGlwb2RpLnNvdXJjZWZvcmdlLm5ldC9EVEQvc29kaXBvZGktMC5kdGQiIHhtbG5zOmlua3NjYXBlPSJodHRwOi8vd3d3Lmlua3NjYXBlLm9yZy9uYW1lc3BhY2VzL2lua3NjYXBlIiB2ZXJzaW9uPSIxLjEiIGlkPSJzdmcxNTY4NTIiIGlua3NjYXBlOnZlcnNpb249IjAuOTIuMyAoMjQwNTU0NiwgMjAxOC0wMy0xMSkiIHNvZGlwb2RpOmRvY25hbWU9ImF6dXJlX2Z1bmN0aW9ucy5zdmciIHg9IjBweCIgeT0iMHB4IiB2aWV3Qm94PSIwIDAgNTcuMzE0MDI4IDUyLjgyIiB4bWw6c3BhY2U9InByZXNlcnZlIiB3aWR0aD0iNTcuMzE0MDMiIGhlaWdodD0iNTIuODIiPjxtZXRhZGF0YSBpZD0ibWV0YWRhdGEyMDc1MSI+PHJkZjpSREY+PGNjOldvcmsgcmRmOmFib3V0PSIiPjxkYzpmb3JtYXQ+aW1hZ2Uvc3ZnK3htbDwvZGM6Zm9ybWF0PjxkYzp0eXBlIHJkZjpyZXNvdXJjZT0iaHR0cDovL3B1cmwub3JnL2RjL2RjbWl0eXBlL1N0aWxsSW1hZ2UiLz48ZGM6dGl0bGUvPjwvY2M6V29yaz48L3JkZjpSREY+PC9tZXRhZGF0YT48ZGVmcyBpZD0iZGVmczIwNzQ5Ij4mI3hhOwkmI3hhOyYjeGE7CSYjeGE7JiN4YTsJJiN4YTsmI3hhOwkmI3hhOzwvZGVmcz4mI3hhOzxmaWx0ZXIgaWQ9ImZpbHRlcl8yIj4mI3hhOwk8ZmVHYXVzc2lhbkJsdXIgaWQ9ImZlR2F1c3NpYW5CbHVyMTU2ODA5IiBzdGREZXZpYXRpb249IjIiLz4mI3hhOzwvZmlsdGVyPiYjeGE7PHNvZGlwb2RpOm5hbWVkdmlldyBib3JkZXJjb2xvcj0iIzY2NjY2NiIgYm9yZGVyb3BhY2l0eT0iMSIgZml0LW1hcmdpbi1ib3R0b209IjAiIGZpdC1tYXJnaW4tbGVmdD0iMCIgZml0LW1hcmdpbi1yaWdodD0iMCIgZml0LW1hcmdpbi10b3A9IjAiIGdyaWR0b2xlcmFuY2U9IjEwIiBndWlkZXRvbGVyYW5jZT0iMTAiIGlkPSJuYW1lZHZpZXcxNTY4NTQiIGlua3NjYXBlOmN1cnJlbnQtbGF5ZXI9InN2ZzE1Njg1MiIgaW5rc2NhcGU6Y3g9Ii00NC42NTA3MTUiIGlua3NjYXBlOmN5PSIyMy4yNzUwMDEiIGlua3NjYXBlOnBhZ2VvcGFjaXR5PSIwIiBpbmtzY2FwZTpwYWdlc2hhZG93PSIyIiBpbmtzY2FwZTp3aW5kb3ctaGVpZ2h0PSIxMDE3IiBpbmtzY2FwZTp3aW5kb3ctbWF4aW1pemVkPSIxIiBpbmtzY2FwZTp3aW5kb3ctd2lkdGg9IjE5MjAiIGlua3NjYXBlOndpbmRvdy14PSItOCIgaW5rc2NhcGU6d2luZG93LXk9Ii04IiBpbmtzY2FwZTp6b29tPSI2LjM5MTY4MjgiIG9iamVjdHRvbGVyYW5jZT0iMTAiIHBhZ2Vjb2xvcj0iI2ZmZmZmZiIgc2hvd2dyaWQ9ImZhbHNlIj4mI3hhOwk8L3NvZGlwb2RpOm5hbWVkdmlldz4mI3hhOyYjeGE7PHBhdGggaWQ9InBhdGgxNTY4MjIiIGlua3NjYXBlOmNvbm5lY3Rvci1jdXJ2YXR1cmU9IjAiIHN0eWxlPSJmaWxsOiMzZjU3NjUiIGQ9Im0gNTYuOTQyMDE0LDI2Ljc3IGMgMC41NCwtMC41MyAwLjQ1LC0xLjUyIDAsLTIuMDYgbCAtMi43NywtMi43NyAtMTIuMzYsLTEyIGMgLTAuNTMsLTAuNTMgLTEuMzQsLTAuNTMgLTEuOTYsMCAtMC41NCwwLjU0IC0wLjcyLDEuNTMgMCwyLjA2IGwgMTIuOTcsMTIuNzEgYyAwLjU0LDAuNTQgMC41NCwxLjUzIDAsMi4wNiBsIC0xMy4yNCwxMy4xNiBjIC0wLjU0LDAuNTQgLTAuNTQsMS41MiAwLDIuMDYgMC41MywwLjU0IDEuNTIsMC40NSAxLjk3LDAgbCAxMi4yNiwtMTIuMTcgYyAwLDAgMCwwIDAuMDksLTAuMDkgeiIvPiYjeGE7JiN4YTs8cGF0aCBpZD0icGF0aDE1NjgzMCIgaW5rc2NhcGU6Y29ubmVjdG9yLWN1cnZhdHVyZT0iMCIgc3R5bGU9ImZpbGw6IzNmNTc2NSIgZD0ibSAwLjM3MjAxMzksMjYuNzcgYyAtMC41NCwtMC41MyAtMC40NSwtMS41MiAwLC0yLjA2IGwgMi43NywtMi43NyAxMi4zNTAwMDAxLC0xMiBjIDAuNTQsLTAuNTMgMS4zNSwtMC41MyAxLjk3LDAgMC41NCwwLjU0IDAuNzIsMS41MyAwLDIuMDYgTCA0Ljc1MjAxMzksMjQuNzEgYyAtMC41MywwLjU0IC0wLjUzLDEuNTMgMCwyLjA2IEwgMTcuNzMyMDE0LDM5LjkzIGMgMC41NCwwLjU0IDAuNTQsMS41MiAwLDIuMDYgLTAuNTMsMC41NCAtMS41MiwwLjQ1IC0xLjk3LDAgTCAzLjIzMjAxMzksMzAgYyAwLDAgMCwwIC0wLjA5LC0wLjA5IHoiLz4mI3hhOyYjeGE7PHBhdGggaWQ9InBhdGgxNTY4MzgiIGlua3NjYXBlOmNvbm5lY3Rvci1jdXJ2YXR1cmU9IjAiIHN0eWxlPSJmaWxsOiMzZjU3NjUiIGQ9Im0gNDIuNjIyMDE0LDAgaCAtMTcuNDUgbCAtOS40LDI2LjUgMTEuNDYsMC4wOSAtOC45NSwyNi4yMyAyNC43LC0zNSBoIC0xMS45OSB6Ii8+JiN4YTsmI3hhOzxwYXRoIGlkPSJwYXRoMTU2ODQ2IiBpbmtzY2FwZTpjb25uZWN0b3ItY3VydmF0dXJlPSIwIiBzdHlsZT0iZmlsbDojMGMwYzBjO2ZpbGwtb3BhY2l0eTowLjMiIGQ9Ik0gMzAuOTgyMDE0LDE3LjgyIDQyLjYyMjAxNCwwIGggLTkuMTMgbCAtOS42NywyMi4wMiAxMS40NiwwLjA5IC0xNy4wMSwzMC43MSAyNC43MSwtMzUgeiIvPiYjeGE7PC9zdmc+;" parent="1" vertex="1">
          <mxGeometry x="-15" y="157" width="57" height="53" as="geometry" />
        </mxCell>
        <mxCell id="9wjv7jFX8xUqSjr2dzsi-33" value="" style="edgeStyle=none;orthogonalLoop=1;jettySize=auto;html=1;rounded=0;exitX=1;exitY=0.75;exitDx=0;exitDy=0;" parent="1" source="9wjv7jFX8xUqSjr2dzsi-35" target="9wjv7jFX8xUqSjr2dzsi-1" edge="1">
          <mxGeometry width="80" relative="1" as="geometry">
            <mxPoint x="141" y="396" as="sourcePoint" />
            <mxPoint x="203" y="326" as="targetPoint" />
            <Array as="points" />
          </mxGeometry>
        </mxCell>
        <mxCell id="9wjv7jFX8xUqSjr2dzsi-34" value="&lt;div&gt;Etikett&lt;/div&gt;" style="edgeLabel;html=1;align=center;verticalAlign=middle;resizable=0;points=[];" parent="9wjv7jFX8xUqSjr2dzsi-33" vertex="1" connectable="0">
          <mxGeometry x="0.006" y="-1" relative="1" as="geometry">
            <mxPoint as="offset" />
          </mxGeometry>
        </mxCell>
        <mxCell id="9wjv7jFX8xUqSjr2dzsi-35" value="" style="shape=image;verticalLabelPosition=bottom;labelBackgroundColor=#ffffff;verticalAlign=top;aspect=fixed;imageAspect=0;image=data:image/svg+xml,PHN2ZyB4bWxuczpkYz0iaHR0cDovL3B1cmwub3JnL2RjL2VsZW1lbnRzLzEuMS8iIHhtbG5zOmNjPSJodHRwOi8vY3JlYXRpdmVjb21tb25zLm9yZy9ucyMiIHhtbG5zOnJkZj0iaHR0cDovL3d3dy53My5vcmcvMTk5OS8wMi8yMi1yZGYtc3ludGF4LW5zIyIgeG1sbnM6c3ZnPSJodHRwOi8vd3d3LnczLm9yZy8yMDAwL3N2ZyIgeG1sbnM9Imh0dHA6Ly93d3cudzMub3JnLzIwMDAvc3ZnIiB4bWxuczpzb2RpcG9kaT0iaHR0cDovL3NvZGlwb2RpLnNvdXJjZWZvcmdlLm5ldC9EVEQvc29kaXBvZGktMC5kdGQiIHhtbG5zOmlua3NjYXBlPSJodHRwOi8vd3d3Lmlua3NjYXBlLm9yZy9uYW1lc3BhY2VzL2lua3NjYXBlIiB2ZXJzaW9uPSIxLjEiIGlkPSJzdmcxNTY4NTIiIGlua3NjYXBlOnZlcnNpb249IjAuOTIuMyAoMjQwNTU0NiwgMjAxOC0wMy0xMSkiIHNvZGlwb2RpOmRvY25hbWU9ImF6dXJlX2Z1bmN0aW9ucy5zdmciIHg9IjBweCIgeT0iMHB4IiB2aWV3Qm94PSIwIDAgNTcuMzE0MDI4IDUyLjgyIiB4bWw6c3BhY2U9InByZXNlcnZlIiB3aWR0aD0iNTcuMzE0MDMiIGhlaWdodD0iNTIuODIiPjxtZXRhZGF0YSBpZD0ibWV0YWRhdGEyMDc1MSI+PHJkZjpSREY+PGNjOldvcmsgcmRmOmFib3V0PSIiPjxkYzpmb3JtYXQ+aW1hZ2Uvc3ZnK3htbDwvZGM6Zm9ybWF0PjxkYzp0eXBlIHJkZjpyZXNvdXJjZT0iaHR0cDovL3B1cmwub3JnL2RjL2RjbWl0eXBlL1N0aWxsSW1hZ2UiLz48ZGM6dGl0bGUvPjwvY2M6V29yaz48L3JkZjpSREY+PC9tZXRhZGF0YT48ZGVmcyBpZD0iZGVmczIwNzQ5Ij4mI3hhOwkmI3hhOyYjeGE7CSYjeGE7JiN4YTsJJiN4YTsmI3hhOwkmI3hhOzwvZGVmcz4mI3hhOzxmaWx0ZXIgaWQ9ImZpbHRlcl8yIj4mI3hhOwk8ZmVHYXVzc2lhbkJsdXIgaWQ9ImZlR2F1c3NpYW5CbHVyMTU2ODA5IiBzdGREZXZpYXRpb249IjIiLz4mI3hhOzwvZmlsdGVyPiYjeGE7PHNvZGlwb2RpOm5hbWVkdmlldyBib3JkZXJjb2xvcj0iIzY2NjY2NiIgYm9yZGVyb3BhY2l0eT0iMSIgZml0LW1hcmdpbi1ib3R0b209IjAiIGZpdC1tYXJnaW4tbGVmdD0iMCIgZml0LW1hcmdpbi1yaWdodD0iMCIgZml0LW1hcmdpbi10b3A9IjAiIGdyaWR0b2xlcmFuY2U9IjEwIiBndWlkZXRvbGVyYW5jZT0iMTAiIGlkPSJuYW1lZHZpZXcxNTY4NTQiIGlua3NjYXBlOmN1cnJlbnQtbGF5ZXI9InN2ZzE1Njg1MiIgaW5rc2NhcGU6Y3g9Ii00NC42NTA3MTUiIGlua3NjYXBlOmN5PSIyMy4yNzUwMDEiIGlua3NjYXBlOnBhZ2VvcGFjaXR5PSIwIiBpbmtzY2FwZTpwYWdlc2hhZG93PSIyIiBpbmtzY2FwZTp3aW5kb3ctaGVpZ2h0PSIxMDE3IiBpbmtzY2FwZTp3aW5kb3ctbWF4aW1pemVkPSIxIiBpbmtzY2FwZTp3aW5kb3ctd2lkdGg9IjE5MjAiIGlua3NjYXBlOndpbmRvdy14PSItOCIgaW5rc2NhcGU6d2luZG93LXk9Ii04IiBpbmtzY2FwZTp6b29tPSI2LjM5MTY4MjgiIG9iamVjdHRvbGVyYW5jZT0iMTAiIHBhZ2Vjb2xvcj0iI2ZmZmZmZiIgc2hvd2dyaWQ9ImZhbHNlIj4mI3hhOwk8L3NvZGlwb2RpOm5hbWVkdmlldz4mI3hhOyYjeGE7PHBhdGggaWQ9InBhdGgxNTY4MjIiIGlua3NjYXBlOmNvbm5lY3Rvci1jdXJ2YXR1cmU9IjAiIHN0eWxlPSJmaWxsOiMzZjU3NjUiIGQ9Im0gNTYuOTQyMDE0LDI2Ljc3IGMgMC41NCwtMC41MyAwLjQ1LC0xLjUyIDAsLTIuMDYgbCAtMi43NywtMi43NyAtMTIuMzYsLTEyIGMgLTAuNTMsLTAuNTMgLTEuMzQsLTAuNTMgLTEuOTYsMCAtMC41NCwwLjU0IC0wLjcyLDEuNTMgMCwyLjA2IGwgMTIuOTcsMTIuNzEgYyAwLjU0LDAuNTQgMC41NCwxLjUzIDAsMi4wNiBsIC0xMy4yNCwxMy4xNiBjIC0wLjU0LDAuNTQgLTAuNTQsMS41MiAwLDIuMDYgMC41MywwLjU0IDEuNTIsMC40NSAxLjk3LDAgbCAxMi4yNiwtMTIuMTcgYyAwLDAgMCwwIDAuMDksLTAuMDkgeiIvPiYjeGE7JiN4YTs8cGF0aCBpZD0icGF0aDE1NjgzMCIgaW5rc2NhcGU6Y29ubmVjdG9yLWN1cnZhdHVyZT0iMCIgc3R5bGU9ImZpbGw6IzNmNTc2NSIgZD0ibSAwLjM3MjAxMzksMjYuNzcgYyAtMC41NCwtMC41MyAtMC40NSwtMS41MiAwLC0yLjA2IGwgMi43NywtMi43NyAxMi4zNTAwMDAxLC0xMiBjIDAuNTQsLTAuNTMgMS4zNSwtMC41MyAxLjk3LDAgMC41NCwwLjU0IDAuNzIsMS41MyAwLDIuMDYgTCA0Ljc1MjAxMzksMjQuNzEgYyAtMC41MywwLjU0IC0wLjUzLDEuNTMgMCwyLjA2IEwgMTcuNzMyMDE0LDM5LjkzIGMgMC41NCwwLjU0IDAuNTQsMS41MiAwLDIuMDYgLTAuNTMsMC41NCAtMS41MiwwLjQ1IC0xLjk3LDAgTCAzLjIzMjAxMzksMzAgYyAwLDAgMCwwIC0wLjA5LC0wLjA5IHoiLz4mI3hhOyYjeGE7PHBhdGggaWQ9InBhdGgxNTY4MzgiIGlua3NjYXBlOmNvbm5lY3Rvci1jdXJ2YXR1cmU9IjAiIHN0eWxlPSJmaWxsOiMzZjU3NjUiIGQ9Im0gNDIuNjIyMDE0LDAgaCAtMTcuNDUgbCAtOS40LDI2LjUgMTEuNDYsMC4wOSAtOC45NSwyNi4yMyAyNC43LC0zNSBoIC0xMS45OSB6Ii8+JiN4YTsmI3hhOzxwYXRoIGlkPSJwYXRoMTU2ODQ2IiBpbmtzY2FwZTpjb25uZWN0b3ItY3VydmF0dXJlPSIwIiBzdHlsZT0iZmlsbDojMGMwYzBjO2ZpbGwtb3BhY2l0eTowLjMiIGQ9Ik0gMzAuOTgyMDE0LDE3LjgyIDQyLjYyMjAxNCwwIGggLTkuMTMgbCAtOS42NywyMi4wMiAxMS40NiwwLjA5IC0xNy4wMSwzMC43MSAyNC43MSwtMzUgeiIvPiYjeGE7PC9zdmc+;" parent="1" vertex="1">
          <mxGeometry x="-15" y="229" width="57" height="53" as="geometry" />
        </mxCell>
      </root>
    </mxGraphModel>
  </diagram>
</mxfile>
